<svg width="80" height="80" viewBox="0 0 80 80" fill="none" xmlns="http://www.w3.org/2000/svg">
<path d="M46.6542 32.0274C46.5564 31.9589 46.4389 31.9295 46.3215 31.9197C46.1355 29.796 44.9709 27.9562 43.2779 26.8503C43.2877 26.8014 43.3072 26.7426 43.2974 26.6937C42.9549 20.6554 41.9763 6.47474 40.2636 5.19271C40.0287 5.02634 39.7645 4.95783 39.4905 5.02634C37.9931 5.37865 36.8677 12.6598 36.1337 26.6839C34.2938 27.7702 33.002 29.6884 32.8063 31.9295C32.6888 31.9393 32.5812 31.9686 32.4735 32.0371C21.0527 40.0915 15.5233 44.9162 16.0322 46.3744C16.1203 46.6289 16.316 46.8344 16.59 46.9322C16.6977 46.9714 16.8347 46.991 17.0108 46.991C19.8881 46.991 30.9077 41.1093 36.0163 38.3005C36.4469 38.5648 36.9068 38.7899 37.3962 38.9464L31.26 70.5178C31.2404 70.6059 31.2404 70.6939 31.26 70.782C31.1915 70.8897 31.1426 71.0071 31.1524 71.1441C31.1719 71.8879 31.6025 72.9742 33.6088 73.8648C33.6969 73.9039 33.7947 73.9235 33.8828 73.9235C34.147 73.9235 34.3917 73.7669 34.5091 73.5125C34.6657 73.1699 34.5091 72.7589 34.1568 72.6121C33.139 72.1619 32.5225 71.6041 32.5127 71.1245C32.5127 71.0952 32.4931 71.0658 32.4931 71.0267C32.542 70.9582 32.5812 70.8701 32.6008 70.782L38.7271 39.2498C39.0012 39.2792 39.2752 39.3085 39.5492 39.3085C39.8624 39.3085 40.1657 39.2792 40.4691 39.24L46.9674 68.7366C46.7521 68.6094 46.5172 68.4822 46.2432 68.3647C45.9007 68.2082 45.4896 68.3647 45.3428 68.7073C45.1862 69.0498 45.3428 69.4608 45.6854 69.6076C46.7031 70.0578 47.3099 70.6156 47.3099 71.105C47.3099 71.4866 47.6231 71.79 47.995 71.79C48.3766 71.79 48.68 71.4769 48.68 71.105C48.68 71.0756 48.68 71.0462 48.68 71.0169C48.7681 70.8701 48.8073 70.6939 48.7681 70.508L41.8099 38.9171C42.2699 38.7605 42.7005 38.5452 43.1017 38.3005C48.2103 41.1093 59.2397 46.991 62.1071 46.991C62.2735 46.991 62.4105 46.9714 62.528 46.9322C62.802 46.8246 62.9977 46.6289 63.0858 46.3744C63.5947 44.9162 58.0653 40.0915 46.6444 32.0371L46.6542 32.0274ZM39.696 6.83684C40.4496 9.08775 41.3597 16.9659 41.898 26.1554C41.1738 25.8912 40.3908 25.7346 39.5688 25.7346C38.8641 25.7346 38.1889 25.8423 37.543 26.038C38.0421 16.8876 38.9326 9.05839 39.696 6.82706V6.83684ZM17.6665 45.5719C19.1247 43.7418 25.3294 38.7703 32.8552 33.4464C33.0705 34.9829 33.7849 36.353 34.8419 37.3806C26.9148 41.7258 19.9174 45.0532 17.6665 45.5719ZM39.5688 37.9286C36.5839 37.9286 34.1568 35.5016 34.1568 32.5167C34.1568 29.5318 36.5839 27.1047 39.5688 27.1047C42.5537 27.1047 44.9807 29.5318 44.9807 32.5167C44.9807 35.5016 42.5537 37.9286 39.5688 37.9286ZM44.2957 37.3708C45.3526 36.3432 46.0768 34.9731 46.2823 33.4366C53.8082 38.7605 60.0128 43.732 61.471 45.5621C59.2201 45.0337 52.2228 41.7062 44.2957 37.3708ZM37.494 68.032C37.4353 67.6601 37.0732 67.4057 36.7111 67.4644C35.5172 67.6601 34.4406 67.9733 33.5696 68.3647C33.2271 68.5213 33.0705 68.9226 33.2271 69.2749C33.3445 69.5293 33.5892 69.6761 33.8534 69.6761C33.9513 69.6761 34.0492 69.6566 34.1373 69.6174C34.8908 69.2749 35.8597 69.0009 36.9362 68.8247C37.3081 68.766 37.5625 68.4137 37.5038 68.0418L37.494 68.032ZM40.0483 73.6299C40.0483 73.6299 39.97 73.6299 39.9309 73.6299C38.9033 73.6299 37.9148 73.5516 36.9753 73.4048C36.5937 73.3363 36.2511 73.6005 36.1924 73.9724C36.1337 74.3443 36.3882 74.6966 36.76 74.7553C37.7583 74.9217 38.825 75 39.9113 75C39.9211 75 39.9407 75 39.9504 75C40.3321 75 40.6844 74.6966 40.6844 74.3149C40.6844 73.9333 40.43 73.6299 40.0483 73.6299ZM42.906 68.8149C42.906 68.8149 42.9843 68.8149 43.0136 68.8149C43.3464 68.8149 43.6302 68.58 43.6889 68.2375C43.7476 67.8656 43.4932 67.5133 43.1213 67.4546C42.1035 67.2882 41.0368 67.2001 39.9309 67.2001H39.8917C39.5101 67.2001 39.2262 67.5035 39.2262 67.8852C39.2262 68.2669 39.5492 68.5703 39.9309 68.5703C40.9585 68.5703 41.9567 68.6485 42.906 68.8051V68.8149ZM45.7245 72.5925C44.9611 72.935 43.9923 73.2091 42.9256 73.3852C42.5537 73.4439 42.2992 73.7963 42.3579 74.1681C42.4167 74.5009 42.7005 74.7456 43.0332 74.7456C43.0723 74.7456 43.1115 74.7456 43.1409 74.7456C44.325 74.5498 45.4113 74.2464 46.2823 73.855C46.6249 73.6984 46.7814 73.2971 46.6249 72.9448C46.4683 72.6023 46.067 72.4457 45.7147 72.6023L45.7245 72.5925Z" fill="url(#paint0_linear_623_2362)"/>
<defs>
<linearGradient id="paint0_linear_623_2362" x1="24.7757" y1="17.4845" x2="66.6964" y2="38.2283" gradientUnits="userSpaceOnUse">
<stop stop-color="#43BDE3"/>
<stop offset="0.235" stop-color="#4A82AB"/>
<stop offset="0.48" stop-color="#4D8DC8"/>
<stop offset="0.7" stop-color="#3F76CA"/>
<stop offset="0.885" stop-color="#705AC9"/>
</linearGradient>
</defs>
</svg>
