<svg width="80" height="81" viewBox="0 0 80 81" fill="none" xmlns="http://www.w3.org/2000/svg">
<path d="M30.2756 57.4414C29.159 57.5757 28.0736 57.7412 27.0604 57.9169C26.6676 57.9893 26.3988 58.3614 26.4712 58.7543C26.5332 59.1058 26.8433 59.3539 27.1845 59.3539C27.2258 59.3539 27.2672 59.3539 27.3086 59.3435C28.301 59.1678 29.3555 59.0127 30.4513 58.8783C30.8441 58.8266 31.1336 58.4648 31.0819 58.072C31.0302 57.6791 30.6787 57.4 30.2756 57.4414ZM36.6851 71.4907C35.5996 71.4493 34.5451 71.3873 33.5113 71.3046C33.0978 71.2942 32.767 71.5734 32.736 71.9662C32.705 72.3694 33.0048 72.7105 33.3976 72.7415C34.4521 72.8243 35.5272 72.8863 36.6334 72.9276C36.6334 72.9276 36.6541 72.9276 36.6644 72.9276C37.0573 72.9276 37.3674 72.6175 37.3881 72.235C37.4088 71.8318 37.0883 71.501 36.6954 71.4803L36.6851 71.4907ZM43.1256 71.4907C42.0815 71.532 41.0167 71.5527 39.9416 71.5527H39.8692C39.466 71.5527 39.1765 71.8732 39.1765 72.2763C39.1765 72.6795 39.5384 73 39.9312 73C41.027 73 42.1125 72.9793 43.167 72.938C43.5702 72.9276 43.8803 72.5865 43.8596 72.1833C43.839 71.7801 43.5082 71.4596 43.105 71.4907H43.1256ZM30.3376 70.9841C29.2521 70.8497 28.1976 70.6946 27.1948 70.5189C26.802 70.4465 26.4298 70.7153 26.3575 71.1082C26.2851 71.501 26.5539 71.8732 26.9467 71.9455C27.9702 72.1316 29.0557 72.2867 30.1618 72.4211C30.1928 72.4211 30.2239 72.4211 30.2549 72.4211C30.6167 72.4211 30.9268 72.1523 30.9682 71.7905C31.0199 71.3976 30.7408 71.0358 30.3376 70.9841ZM18.2421 67.7586C17.1877 67.1797 16.4433 66.5801 16.0298 65.9702C15.8024 65.6394 15.3579 65.5567 15.027 65.7738C14.6962 66.0012 14.6135 66.4457 14.8306 66.7765C15.3682 67.5726 16.2883 68.3272 17.5392 69.0199C17.6529 69.0819 17.7666 69.1129 17.8907 69.1129C18.1491 69.1129 18.3972 68.9785 18.5213 68.7408C18.7177 68.3893 18.5833 67.9551 18.2318 67.7586H18.2421ZM23.8557 58.5785C22.7288 58.8577 21.664 59.1575 20.7026 59.4883C20.3201 59.6123 20.1237 60.0258 20.2477 60.4084C20.3511 60.7082 20.6302 60.8942 20.93 60.8942C21.0127 60.8942 21.0851 60.8839 21.1678 60.8529C22.0879 60.5324 23.1113 60.2429 24.1865 59.9845C24.5793 59.8915 24.8171 59.4986 24.7241 59.1058C24.631 58.7129 24.2382 58.4752 23.8453 58.5682L23.8557 58.5785ZM24.0934 69.8676C23.008 69.5988 21.9948 69.299 21.0748 68.9889C20.6922 68.8545 20.2891 69.0612 20.1547 69.4334C20.0203 69.8056 20.227 70.2191 20.5992 70.3535C21.5606 70.6843 22.6151 70.9944 23.7523 71.2736C23.8143 71.2839 23.866 71.2942 23.928 71.2942C24.2485 71.2942 24.5483 71.0771 24.631 70.7463C24.7241 70.3535 24.4863 69.971 24.1038 69.8676H24.0934ZM36.7264 56.9348C35.6203 56.9761 34.5451 57.0382 33.4907 57.1209C33.0875 57.1519 32.798 57.5034 32.829 57.8962C32.86 58.2787 33.1805 58.5682 33.5527 58.5682C33.5734 58.5682 33.594 58.5682 33.6147 58.5682C34.6485 58.4855 35.7133 58.4235 36.7885 58.3821C37.1917 58.3718 37.5018 58.0306 37.4811 57.6378C37.4708 57.2346 37.1606 56.9141 36.7368 56.9451L36.7264 56.9348ZM61.5583 67.7897C60.7622 68.2239 59.8111 68.627 58.7153 69.0095C58.3328 69.1439 58.1364 69.5575 58.2708 69.9296C58.3742 70.2294 58.6533 70.4155 58.9531 70.4155C59.0358 70.4155 59.1082 70.4052 59.1909 70.3742C60.3591 69.971 61.3825 69.5264 62.2509 69.0612C62.6024 68.8751 62.7368 68.4306 62.5404 68.0791C62.3543 67.7276 61.9098 67.5932 61.5583 67.7897ZM62.2819 60.8219C61.4239 60.3567 60.3901 59.9121 59.2219 59.5089C58.8394 59.3746 58.4362 59.5813 58.3018 59.9535C58.1674 60.336 58.3742 60.7392 58.7463 60.8736C59.8422 61.2561 60.7932 61.6592 61.5893 62.0934C61.703 62.1555 61.8167 62.1865 61.9304 62.1865C62.1889 62.1865 62.437 62.0521 62.5714 61.804C62.7678 61.4525 62.6334 61.0183 62.2819 60.8219ZM43.198 56.9348C42.1332 56.8934 41.0581 56.8728 39.9622 56.8728C39.5591 56.8728 39.2386 57.1932 39.2386 57.5964C39.2386 57.9996 39.5591 58.3201 39.9622 58.3201C41.0374 58.3201 42.1022 58.3408 43.1463 58.3821C43.1463 58.3821 43.167 58.3821 43.1773 58.3821C43.5702 58.3821 43.8803 58.072 43.901 57.6895C43.9113 57.2863 43.6012 56.9555 43.2084 56.9348H43.198ZM56.0688 58.5889C55.066 58.3408 53.9909 58.1237 52.8744 57.9272C52.4815 57.8549 52.1094 58.1237 52.037 58.5165C51.9646 58.9093 52.2334 59.2815 52.6263 59.3539C53.7117 59.54 54.7559 59.7571 55.7276 59.9948C55.7897 60.0052 55.8414 60.0155 55.9034 60.0155C56.2239 60.0155 56.5237 59.7984 56.6064 59.4676C56.6994 59.0748 56.4616 58.6922 56.0791 58.5889H56.0688ZM49.4525 70.9841C48.4187 71.1082 47.3539 71.2115 46.2891 71.3046C45.8859 71.3356 45.5964 71.6871 45.6274 72.0799C45.6585 72.4624 45.9789 72.7519 46.3511 72.7519C46.3718 72.7519 46.3924 72.7519 46.4131 72.7519C47.5089 72.6692 48.5944 72.5555 49.6386 72.4314C50.0314 72.3797 50.3209 72.0179 50.2692 71.6251C50.2175 71.2322 49.866 70.9531 49.4628 70.9944L49.4525 70.9841ZM49.6696 57.4414C48.6255 57.3173 47.54 57.2036 46.4441 57.1209C46.0513 57.1105 45.6998 57.3897 45.6688 57.7825C45.6378 58.1857 45.9376 58.5268 46.3304 58.5579C47.4056 58.6406 48.4704 58.7439 49.4938 58.8783C49.5249 58.8783 49.5559 58.8783 49.5869 58.8783C49.9487 58.8783 50.2589 58.6095 50.3002 58.2477C50.3519 57.8549 50.0728 57.493 49.6696 57.4414ZM55.6966 69.8779C54.7145 70.1157 53.6704 70.3328 52.5952 70.5189C52.2024 70.5913 51.9439 70.9634 52.006 71.3563C52.068 71.7078 52.3678 71.9559 52.7193 71.9559C52.7606 71.9559 52.802 71.9559 52.8433 71.9455C53.9495 71.7491 55.0247 71.532 56.0378 71.2839C56.4306 71.1909 56.6684 70.798 56.565 70.4155C56.472 70.0227 56.0688 69.7952 55.6966 69.8883V69.8779ZM69.4461 31.2966C69.8493 31.2966 70.1698 30.9761 70.1698 30.573V23.5431C70.1698 23.14 69.8493 22.8195 69.4461 22.8195C69.0429 22.8195 68.7225 23.14 68.7225 23.5431V26.293H48.6771C48.6771 26.293 48.6358 26.2517 48.6048 26.2414L40.5722 8.38767C40.3344 7.87078 39.4867 7.87078 39.2489 8.38767L31.1956 26.293H10.4473V23.5431C10.4473 23.14 10.1268 22.8195 9.72366 22.8195C9.32048 22.8195 9 23.14 9 23.5431V30.573C9 30.9761 9.32048 31.2966 9.72366 31.2966C10.1268 31.2966 10.4473 30.9761 10.4473 30.573V27.7404H30.5754L20.837 49.4087H10.4473V46.6072C10.4473 46.204 10.1268 45.8835 9.72366 45.8835C9.32048 45.8835 9 46.204 9 46.6072V53.637C9 54.0402 9.32048 54.3606 9.72366 54.3606C10.1268 54.3606 10.4473 54.0402 10.4473 53.637V50.8457H20.1857L14.3034 63.9233C14.138 64.2851 14.3034 64.7193 14.6652 64.8847C15.027 65.0501 15.4612 64.8847 15.6266 64.5229L15.8437 64.037C15.9368 63.9853 16.0298 63.9233 16.0919 63.8302C16.526 63.2306 17.2807 62.631 18.3455 62.0624C18.697 61.8763 18.8314 61.4318 18.635 61.0803C18.4489 60.7288 18.0044 60.5944 17.6529 60.7909C17.4875 60.8839 17.3324 60.9769 17.1773 61.07L21.7157 50.9801H58.1674L63.7189 63.3133C63.6775 63.4994 63.7189 63.7062 63.8326 63.8716C64.0807 64.2231 64.2048 64.5849 64.2048 64.926C64.2048 65.2775 64.0807 65.6394 63.8119 66.0012C63.5845 66.332 63.6569 66.7765 63.9877 67.0143C64.1117 67.1074 64.2565 67.1487 64.4012 67.1487C64.6286 67.1487 64.8561 67.0453 64.9905 66.8386C65.4247 66.2286 65.6418 65.5773 65.6418 64.926C65.6418 64.7606 65.6314 64.6056 65.6004 64.4402C65.6521 64.2747 65.6521 64.099 65.5797 63.9233L59.6974 50.8457H68.7328V53.637C68.7328 54.0402 69.0533 54.3606 69.4565 54.3606C69.8596 54.3606 70.1801 54.0402 70.1801 53.637V46.6072C70.1801 46.204 69.8596 45.8835 69.4565 45.8835C69.0533 45.8835 68.7328 46.204 68.7328 46.6072V49.4087H59.0461L49.2974 27.7404H68.7328V30.573C68.7328 30.9761 69.0533 31.2966 69.4565 31.2966H69.4461ZM39.9209 10.4449L46.9714 26.1276H32.8704L39.9209 10.4449ZM46.2891 27.575L40.0346 33.0024L33.8525 27.575H46.2891ZM32.064 27.9264L38.9388 33.9535L23.2354 47.5686L32.064 27.9264ZM56.565 49.5328H23.1837L40.0346 34.9149L56.6477 49.4811C56.6477 49.4811 56.596 49.5121 56.5754 49.5328H56.565ZM56.596 47.5169L41.1304 33.9535L47.8604 28.1125L56.5857 47.5169H56.596Z" fill="url(#paint0_linear_679_4261)"/>
<defs>
<linearGradient id="paint0_linear_679_4261" x1="20.3948" y1="19.5927" x2="66.2162" y2="51.2984" gradientUnits="userSpaceOnUse">
<stop stop-color="#43BDE3"/>
<stop offset="0.235" stop-color="#4A82AB"/>
<stop offset="0.48" stop-color="#4D8DC8"/>
<stop offset="0.7" stop-color="#3F76CA"/>
<stop offset="0.885" stop-color="#705AC9"/>
</linearGradient>
</defs>
</svg>
