<svg width="80" height="80" viewBox="0 0 80 80" fill="none" xmlns="http://www.w3.org/2000/svg">
<g clip-path="url(#clip0_191_2285)">
<path d="M64.003 62.2814C63.782 61.707 63.1414 61.4198 62.567 61.6407C61.9926 61.8616 61.7054 62.5023 61.9263 63.0767L62.1031 63.5406C61.9043 64.3138 61.3741 65.5289 60.4904 66.7439C60.1369 67.2299 60.2253 67.9369 60.7334 68.2903C60.9322 68.445 61.1531 68.5112 61.3961 68.5112C61.7275 68.5112 62.081 68.3566 62.2798 68.0694C63.5169 66.3904 64.1576 64.7115 64.3343 63.6952C64.3785 63.4964 64.3343 63.2976 64.2902 63.0988L64.003 62.3256V62.2814ZM56.9999 69.8809C56.1162 70.389 55.1442 70.8088 54.1059 71.096C53.5094 71.2727 52.9571 71.4053 52.449 71.5157C51.8525 71.6483 51.477 72.2447 51.6095 72.8412C51.72 73.3493 52.1839 73.7028 52.692 73.7028C52.7804 73.7028 52.8466 73.7028 52.935 73.6807C53.4873 73.5481 54.0838 73.4156 54.7244 73.2168C55.9395 72.8854 57.0883 72.3994 58.1266 71.7808C58.6568 71.4715 58.8335 70.8088 58.5242 70.2786C58.2149 69.7484 57.5301 69.5716 57.022 69.8809H56.9999ZM47.6109 72.0017C46.661 71.9355 45.8657 71.7145 45.225 71.3832L44.5843 69.9914C44.3192 69.4391 43.6786 69.1961 43.1042 69.4612C42.5519 69.7263 42.3089 70.389 42.574 70.9413L43.3693 72.6424C43.4577 72.8412 43.6123 72.9959 43.789 73.1063C44.8053 73.747 45.9982 74.1004 47.4342 74.2109C47.4563 74.2109 47.5005 74.2109 47.5225 74.2109C48.0969 74.2109 48.5829 73.7691 48.6271 73.1947C48.6713 72.5761 48.2295 72.0459 47.6109 72.0017ZM61.5066 58.8572C62.081 58.6362 62.3682 57.9956 62.1473 57.4212L61.3078 55.212C61.3078 55.212 61.2636 55.1457 61.2415 55.1237C61.2194 55.0353 61.2194 54.9248 61.1752 54.8365C60.3799 52.7598 58.48 51.2797 55.8069 50.639C53.4431 50.0867 50.7479 50.2856 48.0748 51.1251L45.8436 45.2266C46.2191 45.0719 46.5947 44.8952 46.9482 44.7185C47.4784 44.4313 47.6772 43.7685 47.39 43.2162C47.1028 42.686 46.44 42.4872 45.8878 42.7744C45.6227 42.929 45.3355 43.0395 45.0483 43.172L43.4135 38.8642C44.982 38.1351 46.3959 37.1852 47.5667 36.0806L61.2194 39.4827C61.1973 40.1234 61.2415 40.764 61.4845 41.3605C61.4845 41.4268 61.5508 41.471 61.5729 41.5152C61.5729 41.6035 61.5729 41.6698 61.6171 41.7582L62.5891 43.9232C62.7658 44.3208 63.1635 44.5638 63.6053 44.5638C63.76 44.5638 63.9146 44.5417 64.0692 44.4754C64.1797 44.4313 64.2902 44.3429 64.3785 44.2545C64.8204 44.4534 65.2843 44.608 65.8145 44.7406C66.5435 44.9173 67.3388 45.0056 68.1341 45.0056C69.6143 45.0056 71.1828 44.7185 72.7071 44.122C75.0488 43.2383 77.015 41.7803 78.2521 40.0129C78.6719 39.4164 78.937 38.8421 79.1579 38.2456C79.2683 38.2456 79.3567 38.2456 79.4672 38.1793C80.0415 37.9584 80.3066 37.2956 80.0636 36.7433L79.2683 34.7993C79.2683 34.7993 79.2683 34.6888 79.2242 34.6446C78.5835 32.9878 77.0592 31.7948 74.9163 31.2867C72.8176 30.7786 70.3875 30.9995 68.0237 31.9053C65.6819 32.7889 63.7158 34.247 62.4786 36.0143C62.1694 36.4562 61.9263 36.898 61.7275 37.3619L49.2236 34.247C49.555 33.7831 49.798 33.297 50.0189 32.8331L50.3724 33.8052C50.5491 34.247 50.9689 34.5121 51.4107 34.5121C51.5432 34.5121 51.6758 34.49 51.8083 34.4458C52.3827 34.2249 52.6699 33.5842 52.449 33.0319L51.6095 30.8228C51.5432 30.6239 51.3886 30.4693 51.234 30.3368C51.2781 30.1379 51.2781 29.9391 51.2119 29.7182L50.4607 27.7078C50.4607 27.7078 50.4607 27.6195 50.4386 27.5532C50.3282 27.266 50.1515 27.023 50.0189 26.78L55.9616 21.478C55.9616 21.478 56.072 21.478 56.1162 21.4338C56.2267 21.3896 56.3371 21.3012 56.4255 21.2129C56.8673 21.4117 57.3313 21.5663 57.8615 21.6989C58.5905 21.8756 59.3858 21.964 60.1811 21.964C61.6612 21.964 63.2298 21.6768 64.7541 21.1024C67.0958 20.2187 69.062 18.7386 70.2991 16.9934C70.7188 16.3969 70.9839 15.8004 71.2049 15.226C71.3153 15.226 71.4037 15.226 71.5141 15.1597C72.0885 14.9388 72.3536 14.2761 72.1106 13.7238L71.3153 11.7797C71.3153 11.7797 71.3153 11.6693 71.2711 11.6251C70.6305 9.96819 69.1062 8.77524 66.9633 8.26713C64.8645 7.78111 62.4124 7.97994 60.0706 8.8857C57.7289 9.76937 55.7628 11.2274 54.5256 12.9948C53.2664 14.8063 52.9129 16.7062 53.5315 18.363C53.5315 18.4072 53.5978 18.4514 53.6199 18.5177C53.6199 18.6061 53.6199 18.6723 53.6861 18.7607L54.2605 20.042L48.6271 25.0789C47.6993 24.3057 46.5063 23.7092 45.0925 23.3779C42.8833 22.8477 40.3648 23.0023 37.8685 23.7092L36.6976 20.7931C36.9185 21.0803 37.2499 21.2571 37.5813 21.2571C37.8022 21.2571 38.001 21.1908 38.1998 21.0803C38.9289 20.5943 39.5916 20.0199 40.1881 19.3793C40.6078 18.9374 40.5637 18.2305 40.1218 17.8108C39.68 17.391 38.973 17.4352 38.5533 17.877C38.0673 18.3851 37.5371 18.8491 36.9627 19.2467C36.6092 19.4897 36.4325 19.9095 36.4988 20.3071L34.9965 16.5736C36.6534 15.6899 38.0673 14.5191 39.0172 13.1494C39.4591 12.5087 39.7463 11.8681 39.9672 11.2274C40.0555 11.2274 40.1218 11.2274 40.2102 11.1832C40.7846 10.9623 41.0497 10.3217 40.8288 9.74727L39.9451 7.5381C39.8788 7.38346 39.7904 7.25091 39.6579 7.14045C38.9068 5.81495 37.5592 4.84291 35.7035 4.40108C33.6048 3.91506 31.1526 4.11389 28.8109 5.01965C26.4691 5.90332 24.503 7.38346 23.2658 9.12871C22.0066 10.9402 21.6531 12.8401 22.2717 14.497C22.2717 14.5412 22.338 14.5854 22.3601 14.6516C22.3601 14.74 22.3601 14.8063 22.4264 14.8946L23.3984 17.0596C23.5751 17.4573 23.9949 17.7003 24.4146 17.7003C24.5693 17.7003 24.7239 17.6782 24.8785 17.6119C24.989 17.5677 25.0995 17.4794 25.1878 17.391C25.6297 17.5898 26.0936 17.7666 26.6238 17.877C27.3528 18.0538 28.1481 18.1421 28.9434 18.1421C30.2689 18.1421 31.6386 17.877 33.0083 17.4131L35.836 24.4383C33.2071 25.5649 30.9758 27.266 29.5399 29.2984C28.7667 30.403 28.2807 31.5076 28.0597 32.6122H20.3055L19.9963 31.8169C19.9963 31.7727 19.9963 31.7064 19.9521 31.6623C19.3114 30.0054 17.7871 28.8124 15.6442 28.3043C13.5455 27.7962 11.1154 28.0171 8.75158 28.9229C6.40986 29.8066 4.4437 31.2867 3.20656 33.0319C1.94733 34.8435 1.59387 36.7433 2.21244 38.4002C2.21244 38.4444 2.27871 38.4886 2.3008 38.5549C2.3008 38.6432 2.3008 38.7095 2.36708 38.7979L3.33911 40.9629C3.51585 41.3605 3.9135 41.6035 4.35533 41.6035C4.50997 41.6035 4.66462 41.5814 4.81926 41.5152C4.92972 41.471 5.04017 41.3826 5.12854 41.2942C5.57038 41.4931 6.0343 41.6477 6.5645 41.7803C7.29353 41.957 8.08883 42.0454 8.88413 42.0454C10.3643 42.0454 11.9328 41.7582 13.4571 41.1617C15.7988 40.278 17.765 38.82 19.0021 37.0526C19.4219 36.4562 19.687 35.8818 19.9079 35.2853C20.0184 35.2853 20.1067 35.2853 20.2172 35.219C20.4381 35.1307 20.5707 34.976 20.7032 34.7993H28.0818C28.1481 35.219 28.1923 35.6167 28.3469 35.9922C28.3911 36.1027 28.4574 36.169 28.5016 36.2794C28.5016 36.3457 28.5016 36.412 28.5458 36.4562L29.562 38.5991C29.6503 38.7979 29.805 38.9525 29.9817 39.063C29.9817 39.2618 29.9817 39.4606 30.0701 39.6374L31.0863 41.7803C31.2851 42.1779 31.6607 42.3988 32.0804 42.3988C32.1909 42.3988 32.3013 42.3546 32.4339 42.3105L27.2644 50.3739C27.0435 50.3077 26.8447 50.2193 26.6238 50.153C24.5251 49.6449 22.0729 49.8658 19.7312 50.7716C17.3894 51.6553 15.4012 53.1133 14.1861 54.8806C12.9269 56.6922 12.5735 58.5921 13.192 60.2489C13.192 60.2931 13.2362 60.3373 13.2583 60.3815L14.142 62.3476C14.3187 62.7674 14.7384 63.0104 15.1582 63.0104C15.3128 63.0104 15.4675 62.9883 15.6 62.922C15.6 62.922 15.6221 62.922 15.6442 62.8999C16.1965 63.2092 16.8151 63.4743 17.4999 63.629C18.2289 63.8057 19.0242 63.8941 19.8195 63.8941C21.2997 63.8941 22.8682 63.6069 24.3925 63.0104C26.7342 62.1267 28.7004 60.6466 29.9375 58.9013C30.291 58.4153 30.5561 57.9072 30.7549 57.3991C30.7991 57.3991 30.8212 57.4433 30.8654 57.4433C30.9979 57.4433 31.1526 57.4212 31.2851 57.3549C31.8595 57.134 32.1246 56.4933 31.9037 55.919L31.02 53.7319C31.02 53.7319 30.9758 53.6656 30.9538 53.6435C30.9538 53.5993 30.9538 53.5551 30.9317 53.5331C30.6003 52.6715 30.0259 51.9425 29.2748 51.3681L36.2558 40.4989C36.3883 40.4989 36.4988 40.4989 36.6313 40.4989C38.2219 40.4989 39.8788 40.2117 41.5136 39.6815L43.1042 43.9011C42.7728 43.9894 42.4635 44.0778 42.1322 44.1441C41.5357 44.2766 41.1601 44.8731 41.2927 45.4475C41.4031 45.9556 41.8671 46.3091 42.3752 46.3091C42.4635 46.3091 42.5298 46.3091 42.6182 46.287C43.0379 46.1986 43.4577 46.0881 43.8995 45.9556L46.175 51.9204C43.7449 53.047 41.6903 54.6597 40.3427 56.5596C38.7521 58.813 38.3324 61.1989 39.1056 63.2534C39.194 63.4743 39.3265 63.6511 39.437 63.8499C39.437 63.9162 39.437 63.9603 39.4812 64.0266L40.4974 66.1695C40.6962 66.5672 41.0939 66.8102 41.4915 66.8102C41.6461 66.8102 41.8008 66.766 41.9554 66.6997C42.0438 66.6555 42.088 66.5893 42.1763 66.5451C42.8612 66.9206 43.6123 67.252 44.496 67.4508C45.4238 67.6717 46.3959 67.7822 47.4121 67.7822C49.2678 67.7822 51.234 67.4067 53.1338 66.6776C56.072 65.5509 58.5463 63.7173 60.0927 61.5082C60.7113 60.6466 61.0869 59.7629 61.352 58.8792C61.4624 58.8792 61.5508 58.8792 61.6612 58.813L61.5066 58.8572ZM64.2681 37.2515C65.2401 35.8597 66.897 34.6667 68.7969 33.9377C70.0561 33.4517 71.3816 33.2087 72.5966 33.2087C73.2373 33.2087 73.8338 33.275 74.3861 33.4075C75.7558 33.7389 76.6836 34.4016 77.0813 35.3074C77.0813 35.3074 77.0813 35.3516 77.0813 35.3737L77.1475 35.5504C77.4347 36.4783 77.1917 37.6049 76.3964 38.7316C75.4244 40.1234 73.7675 41.3163 71.8676 42.0454C69.9677 42.7744 67.9353 42.9732 66.2784 42.5756C64.8645 42.2442 63.8925 41.5373 63.5169 40.5652C63.1414 39.6153 63.4065 38.4223 64.246 37.2515H64.2681ZM56.293 14.2319C57.265 12.8401 58.9219 11.6472 60.8218 10.9181C62.081 10.4321 63.4065 10.1891 64.6215 10.1891C65.2401 10.1891 65.8587 10.2554 66.411 10.3879C67.7806 10.7193 68.7085 11.3821 69.1062 12.2878C69.1062 12.2878 69.1062 12.332 69.1062 12.3541L69.1724 12.5308C69.4596 13.4587 69.2166 14.5854 68.4213 15.712C67.4493 17.1038 65.7924 18.2968 63.8925 19.0258C61.9926 19.7548 59.9381 19.9536 58.3033 19.556C56.8894 19.2246 55.9174 18.5177 55.5418 17.5457C55.1663 16.5957 55.4314 15.4028 56.2709 14.2319H56.293ZM32.6106 15.1818C30.7107 15.9109 28.6562 16.0876 27.0214 15.712C25.6076 15.3807 24.6355 14.6737 24.26 13.7017C23.8844 12.7517 24.1495 11.5588 24.989 10.3879C25.961 8.99616 27.6179 7.8032 29.5178 7.07418C30.777 6.58816 32.1025 6.34515 33.3176 6.34515C33.9582 6.34515 34.5547 6.41143 35.107 6.54398C36.5209 6.87535 37.4929 7.58229 37.8685 8.55432C38.244 9.50427 37.9789 10.6972 37.1394 11.8681C36.1674 13.2599 34.5105 14.4528 32.6106 15.1818ZM17.0581 35.7713C16.086 37.1631 14.4292 38.356 12.5293 39.0851C10.6294 39.8141 8.59694 40.0129 6.94006 39.6153C5.52619 39.2839 4.55416 38.577 4.1786 37.6049C3.80304 36.655 4.06814 35.462 4.90762 34.2912C5.87966 32.8994 7.53654 31.7064 9.43643 30.9774C10.6957 30.4914 12.0212 30.2484 13.2362 30.2484C13.8548 30.2484 14.4733 30.3147 15.0256 30.4472C16.3953 30.7786 17.3453 31.4413 17.7208 32.3471V32.3913L17.7871 32.568C18.0743 33.4959 17.8313 34.6225 17.036 35.7713H17.0581ZM27.9714 57.62C26.9993 59.0118 25.3425 60.2048 23.4426 60.9338C21.5427 61.6628 19.5102 61.8395 17.8534 61.464C16.5058 61.1547 15.5779 60.4699 15.1803 59.5862L15.0919 59.3874C14.7605 58.4374 15.0256 57.2886 15.843 56.1399C16.8151 54.7481 18.4719 53.5551 20.3718 52.8261C21.6311 52.3401 22.9566 52.0971 24.1716 52.0971C24.8123 52.0971 25.4087 52.1634 25.961 52.2959C27.3749 52.6273 28.3469 53.3342 28.7225 54.3063C29.0981 55.2562 28.833 56.4492 27.9935 57.62H27.9714ZM33.0083 41.1617C33.0083 41.0512 32.9641 40.9187 32.9199 40.8082L32.4339 39.792C32.8095 39.9246 33.1408 40.0792 33.5606 40.1676C33.5827 40.1676 33.6269 40.1676 33.6489 40.1676L33.0304 41.1396L33.0083 41.1617ZM41.4031 37.3398C38.8626 38.3119 36.2558 38.5549 34.0687 38.0247C32.1246 37.5607 30.777 36.5666 30.2468 35.1969C29.7387 33.8272 30.0701 32.1925 31.2189 30.5577C32.5223 28.702 34.621 27.1555 37.1615 26.1835C38.8184 25.5429 40.5195 25.2336 42.1101 25.2336C42.9496 25.2336 43.7449 25.3219 44.5181 25.4987C46.418 25.9405 47.7435 26.9346 48.2958 28.238L48.362 28.4369C48.826 29.7845 48.4725 31.3751 47.3679 32.9878C46.0645 34.8435 43.9658 36.3899 41.4252 37.3619L41.4031 37.3398ZM58.1045 60.271C56.8011 62.1267 54.7024 63.6732 52.1618 64.6452C49.6213 65.6172 47.0144 65.8381 44.8274 65.33C42.8833 64.8661 41.5357 63.872 41.0055 62.5023C40.4753 61.1326 40.8288 59.4978 41.9775 57.863C43.2809 56.0073 45.3796 54.4609 47.9202 53.4889C49.5771 52.8482 51.2781 52.5389 52.8687 52.5389C53.7082 52.5389 54.5035 52.6273 55.2767 52.804C57.2208 53.268 58.5684 54.2621 59.0986 55.6318C59.6067 57.0015 59.2753 58.6362 58.1266 60.271H58.1045ZM25.9831 22.4279C26.3587 22.6709 26.7563 22.8477 27.1982 23.0023C27.3086 23.0465 27.4191 23.0686 27.5516 23.0686C28.0156 23.0686 28.4574 22.7814 28.5899 22.3175C28.7888 21.7431 28.4574 21.1245 27.883 20.9257C27.7063 20.8594 27.5516 20.8152 27.4191 20.7269L26.6901 19.0921C26.447 18.5398 25.7843 18.2968 25.232 18.5398C24.6797 18.7828 24.4367 19.4455 24.6797 19.9978L25.5634 21.964C25.6517 22.1628 25.8064 22.3396 25.9831 22.45V22.4279ZM30.8654 23.3337C31.6386 23.2674 32.4781 23.1349 33.3618 22.936C33.9582 22.8035 34.3338 22.207 34.2012 21.6105C34.0687 21.014 33.4943 20.6385 32.8757 20.771C32.0804 20.9478 31.3514 21.0582 30.6887 21.1245C30.0701 21.1687 29.6283 21.6989 29.6724 22.3175C29.7166 22.8918 30.2026 23.3337 30.777 23.3337C30.7991 23.3337 30.8433 23.3337 30.8654 23.3337ZM39.8788 13.4587L40.3648 14.6958C40.2986 14.8946 40.2102 15.1818 40.0555 15.5353C39.8125 16.0876 40.0555 16.7503 40.6078 16.9934C40.7625 17.0596 40.9171 17.0817 41.0718 17.0817C41.4915 17.0817 41.8892 16.8387 42.088 16.4411C42.3531 15.8667 42.5519 15.2923 42.6403 14.8284C42.6845 14.6295 42.6403 14.4086 42.574 14.2098L41.9554 12.6413C41.7345 12.0669 41.0718 11.8018 40.5195 12.0227C39.9451 12.2436 39.68 12.8843 39.9009 13.4587H39.8788ZM58.723 24.5487L58.3475 23.6871C58.1045 23.1349 57.4417 22.8918 56.8894 23.1349C56.3371 23.3779 56.0941 24.0406 56.3371 24.5929L56.8673 25.7859C56.9557 25.9847 57.1103 26.1614 57.2871 26.2719C58.1707 26.8242 59.187 27.1114 60.4462 27.1997C60.4462 27.1997 60.4904 27.1997 60.5125 27.1997C61.0869 27.1997 61.5729 26.7579 61.6171 26.1614C61.6612 25.5428 61.1973 25.0347 60.5787 24.9906C59.8497 24.9464 59.2312 24.7917 58.723 24.5487ZM71.5804 18.2968L71.6688 18.5398C71.4921 19.1363 71.1165 20.0199 70.4537 20.9036C70.1003 21.3896 70.1886 22.0965 70.6968 22.45C70.8956 22.6047 71.1165 22.6709 71.3595 22.6709C71.6909 22.6709 72.0223 22.5163 72.2432 22.2291C73.5024 20.528 73.8338 19.07 73.9221 18.6723C73.9663 18.4514 73.9221 18.2526 73.8559 18.0538L73.6349 17.5015C73.3919 16.9271 72.7513 16.6841 72.199 16.905C71.6467 17.1259 71.3595 17.7887 71.6025 18.341L71.5804 18.2968ZM67.8027 23.3116C67.1179 23.7313 66.3447 24.0406 65.5273 24.2836C65.1075 24.3941 64.6878 24.5045 64.3122 24.5929C63.7158 24.7255 63.3402 25.3219 63.4728 25.9184C63.5832 26.4265 64.0471 26.78 64.5553 26.78C64.6436 26.78 64.732 26.78 64.7983 26.7579C65.218 26.6695 65.6598 26.537 66.1238 26.4265C67.1179 26.1393 68.0678 25.7417 68.9073 25.2336C69.4375 24.9243 69.6143 24.2394 69.305 23.7313C68.9957 23.2011 68.3109 23.0244 67.8027 23.3337V23.3116ZM13.4129 46.7951C13.8327 46.7067 14.2745 46.5742 14.7384 46.4637C15.7326 46.1765 16.6825 45.7789 17.522 45.2708C18.0522 44.9615 18.2289 44.2766 17.9196 43.7685C17.6104 43.2383 16.9255 43.0616 16.4174 43.3709C15.7326 43.7685 14.9594 44.0999 14.142 44.3429C13.7222 44.4534 13.3025 44.5638 12.9269 44.6522C12.3304 44.7847 11.9549 45.3812 12.0874 45.9777C12.1979 46.4858 12.6618 46.8393 13.1699 46.8393C13.2583 46.8393 13.3246 46.8393 13.4129 46.8172V46.7951ZM19.3114 42.4872C19.5102 42.6418 19.7312 42.7081 19.9742 42.7081C20.3055 42.7081 20.659 42.5535 20.8578 42.2663C21.852 40.9187 22.3822 39.549 22.5368 38.7095C22.581 38.5107 22.5368 38.2898 22.4705 38.0909L22.2496 37.5387C22.0287 36.9643 21.366 36.6992 20.8137 36.9422C20.2393 37.1631 19.9742 37.8258 20.2172 38.3781L20.3055 38.6211C20.1288 39.2176 19.7533 40.1013 19.0905 40.985C18.737 41.471 18.8254 42.1779 19.3335 42.5314L19.3114 42.4872ZM9.19342 45.0277C8.46439 44.9836 7.84582 44.8289 7.33771 44.5859L6.94006 43.7243C6.69705 43.172 6.0343 42.929 5.48201 43.172C4.92972 43.415 4.68671 44.0778 4.92972 44.6301L5.45992 45.823C5.54828 46.0219 5.70293 46.1986 5.87966 46.3091C6.76333 46.8614 7.77955 47.1485 9.03877 47.2369C9.03877 47.2369 9.08296 47.2369 9.10505 47.2369C9.67944 47.2369 10.1655 46.7951 10.2096 46.1986C10.2538 45.58 9.78989 45.0719 9.17133 45.0277H9.19342ZM27.0435 65.3742C26.425 65.7056 25.7622 65.9707 25.0774 66.1695C24.503 66.3242 23.9728 66.4567 23.4868 66.5672C22.8903 66.6997 22.5147 67.2741 22.6252 67.8706C22.7356 68.4008 23.1996 68.7542 23.7077 68.7542C23.796 68.7542 23.8623 68.7542 23.9286 68.7322C24.4588 68.6217 25.0553 68.4671 25.6738 68.2903C26.5354 68.0473 27.3307 67.7159 28.1039 67.3183C28.6341 67.0311 28.833 66.3683 28.5458 65.8161C28.2586 65.2859 27.5958 65.087 27.0435 65.3742ZM19.7533 66.8544C19.1789 66.7881 18.6929 66.6555 18.2731 66.4567L17.7208 65.1975C17.4778 64.6452 16.8151 64.3801 16.2628 64.6452C15.7105 64.8882 15.4454 65.5509 15.7105 66.1032L16.4174 67.6938C16.5058 67.8927 16.6604 68.0694 16.8372 68.1799C17.5883 68.6438 18.4719 68.931 19.5102 69.0635C19.5544 69.0635 19.5986 69.0635 19.6428 69.0635C20.1951 69.0635 20.6811 68.6438 20.7474 68.0915C20.8137 67.495 20.3718 66.9427 19.7753 66.8765L19.7533 66.8544ZM33.2955 59.6746C33.0746 59.1002 32.4339 58.8351 31.8595 59.056C31.3293 59.2769 31.0421 59.8513 31.2189 60.4036C31.0421 61.0001 30.6224 62.0163 29.805 63.0546C29.4294 63.5406 29.5178 64.2254 29.9817 64.601C30.1805 64.7556 30.4236 64.844 30.6666 64.844C30.9979 64.844 31.3072 64.7115 31.5281 64.4243C32.6769 62.9662 33.2734 61.464 33.4501 60.5361C33.4943 60.3373 33.4501 60.1164 33.3838 59.9176L33.2955 59.6746ZM81.8089 41.007L81.588 40.4548C81.3671 39.8804 80.7043 39.6153 80.152 39.8583C79.5776 40.0792 79.3125 40.7419 79.5555 41.2942L79.6439 41.5373C79.4672 42.1337 79.0916 43.0174 78.4288 43.9011C78.0754 44.3871 78.1637 45.094 78.6719 45.4475C78.8707 45.6021 79.0916 45.6684 79.3346 45.6684C79.666 45.6684 80.0195 45.5138 80.2183 45.2266C81.2124 43.879 81.7426 42.5093 81.8972 41.6698C81.9414 41.471 81.8972 41.2501 81.831 41.0512L81.8089 41.007ZM68.5318 47.9659C67.6039 47.8997 67.0074 47.7008 66.6761 47.5241L66.2784 46.6625C66.0354 46.1102 65.3727 45.8672 64.8204 46.1102C64.2681 46.3532 64.0251 47.016 64.2681 47.5683L64.7983 48.7612C64.8866 48.9601 65.0413 49.1368 65.218 49.2473C66.1017 49.7996 67.1179 50.0867 68.3771 50.1751C68.3771 50.1751 68.4213 50.1751 68.4434 50.1751C69.0178 50.1751 69.5038 49.7333 69.548 49.1368C69.5922 48.5182 69.1282 48.0101 68.5097 47.9659H68.5318ZM75.7337 46.287C75.0488 46.6846 74.2756 47.016 73.4582 47.259C73.0385 47.3695 72.6187 47.4799 72.2432 47.5683C71.6467 47.7008 71.2711 48.2973 71.4037 48.8938C71.5141 49.4019 71.9781 49.7554 72.4862 49.7554C72.5746 49.7554 72.6408 49.7554 72.7292 49.7333C73.1489 49.6449 73.5908 49.5124 74.0547 49.4019C75.0488 49.1147 75.9988 48.7171 76.8382 48.209C77.3685 47.8997 77.5452 47.2148 77.2359 46.7067C76.9266 46.1765 76.2418 45.9998 75.7337 46.3091V46.287ZM38.9068 45.6684C38.9068 45.0719 38.3987 44.5638 37.8022 44.5638C36.8302 44.5638 36.079 44.4975 35.6151 44.4313C35.0186 44.3429 34.4442 44.7626 34.3559 45.3591C34.2675 45.9556 34.6873 46.53 35.2837 46.6183C35.9907 46.7288 36.8081 46.7951 37.6696 46.7951C37.7138 46.7951 37.7801 46.7951 37.8243 46.7951C38.4428 46.7951 38.9289 46.287 38.9289 45.6905L38.9068 45.6684ZM50.3282 38.4665C49.9526 39.0851 49.5329 39.6815 49.0469 40.2117C48.6492 40.6757 48.6934 41.3605 49.1352 41.7803C49.3562 41.957 49.5992 42.0675 49.8643 42.0675C50.1736 42.0675 50.4828 41.9349 50.6817 41.6919C51.256 41.0512 51.7642 40.3443 52.206 39.6153C52.5153 39.0851 52.3385 38.4223 51.8304 38.0909C51.3002 37.7817 50.6375 37.9584 50.3061 38.4665H50.3282Z" fill="url(#paint0_linear_191_2285)"/>
</g>
<defs>
<linearGradient id="paint0_linear_191_2285" x1="16.8151" y1="16.6399" x2="68.7969" y2="60.271" gradientUnits="userSpaceOnUse">
<stop stop-color="#43BDE3"/>
<stop offset="0.235" stop-color="#4A82AB"/>
<stop offset="0.48" stop-color="#4D8DC8"/>
<stop offset="0.7" stop-color="#3F76CA"/>
<stop offset="0.885" stop-color="#705AC9"/>
</linearGradient>
<clipPath id="clip0_191_2285">
<rect width="80" height="80" fill="white"/>
</clipPath>
</defs>
</svg>
