<svg width="80" height="80" viewBox="0 0 80 80" fill="none" xmlns="http://www.w3.org/2000/svg">
<g clip-path="url(#clip0_245_581)">
<path d="M71.0014 48.5026C70.1449 47.7489 69.7451 46.5726 69.9507 45.4305C70.2705 43.6375 70.4304 41.8559 70.4304 40.0058C70.4304 38.1557 70.2705 36.3741 69.9507 34.5583C69.7337 33.4734 70.1334 32.2856 70.99 31.5205C70.99 31.5205 71.0014 31.509 71.0128 31.4976L75.9578 27.1693C77.0656 26.21 77.3511 24.5769 76.6202 23.2749C76.6202 23.2635 76.6088 23.2521 76.5974 23.2407L72.8286 16.731C72.0977 15.4405 70.5217 14.8581 69.1056 15.3263L62.8358 17.4163C61.7508 17.8045 60.5403 17.5761 59.6723 16.811C56.8401 14.4241 53.688 12.6083 50.2847 11.4205C49.177 11.0094 48.3775 10.0958 48.1491 8.95373L46.87 2.50119C46.5845 1.0508 45.294 0.00012207 43.8094 0.00012207H36.2376C34.753 0.00012207 33.4739 1.03938 33.177 2.46693V2.50119L31.8865 8.95373C31.6581 10.0958 30.8586 11.0094 29.7508 11.4205C26.359 12.6083 23.1955 14.4241 20.3633 16.8224C19.4839 17.5761 18.2733 17.7931 17.1884 17.4163L10.93 15.3377C9.51387 14.8695 7.94927 15.4519 7.20694 16.7424L3.41536 23.2863C2.68446 24.5883 2.96997 26.2328 4.07775 27.1807L9.02279 31.509C9.87932 32.2742 10.3019 33.4734 10.0735 34.5811C9.7537 36.3856 9.59381 38.1557 9.59381 40.0058C9.59381 41.8559 9.7537 43.6375 10.0735 45.4534C10.3019 46.5383 9.89074 47.726 9.03421 48.4912C9.03421 48.4912 9.02279 48.5026 9.01137 48.514L4.06633 52.8424C2.94713 53.8017 2.67304 55.4006 3.41536 56.7482L7.19552 63.2806C7.92643 64.5597 9.49102 65.1536 10.9186 64.6853L17.1884 62.5954C18.2733 62.2071 19.4839 62.4355 20.3518 63.2007C23.1841 65.5876 26.3361 67.4034 29.728 68.5911C30.8472 69.0023 31.6466 69.9273 31.8636 71.0579L33.1427 77.4991C33.4282 78.9494 34.7187 80.0001 36.2034 80.0001H43.7751C45.2712 80.0001 46.5617 78.9494 46.8358 77.4991L48.1149 71.0465C48.3433 69.9045 49.1427 68.9908 50.2505 68.5797C53.6424 67.392 56.8058 65.5761 59.6381 63.1779C60.5174 62.4241 61.728 62.2071 62.8129 62.584L69.0713 64.6625C70.4875 65.1307 72.0521 64.5483 72.7944 63.2578L76.586 56.7139C77.3169 55.412 77.0314 53.7674 75.9236 52.8195L70.9785 48.4912L71.0014 48.5026ZM75.2155 55.9487L71.4239 62.4812C71.0585 63.1093 70.2933 63.3948 69.5967 63.1664L63.3611 61.0879C61.7623 60.5169 59.9464 60.8481 58.6331 61.9673C55.9493 64.24 52.9571 65.953 49.7251 67.0836C48.0806 67.6889 46.9043 69.0479 46.5731 70.7382L45.294 77.1907C45.157 77.8873 44.5289 78.4013 43.798 78.4013H36.2262C35.4953 78.4013 34.8672 77.8988 34.7301 77.1907L33.4511 70.7496C33.1199 69.0594 31.9321 67.6889 30.2762 67.0836C27.067 65.953 24.0749 64.24 21.4139 61.9901C20.5346 61.2135 19.4154 60.8138 18.2847 60.8138C17.748 60.8138 17.2112 60.9052 16.6859 61.0879L10.4389 63.1664C9.74227 63.3948 8.96569 63.1093 8.60023 62.4698L4.8315 55.9602C4.46604 55.2978 4.59167 54.5098 5.13985 54.0301L10.062 49.7132C10.062 49.7132 10.0849 49.7018 10.0849 49.6903C11.3982 48.5369 11.9921 46.7896 11.6609 45.1336C11.3526 43.4434 11.2041 41.7646 11.2041 39.9944C11.2041 38.2242 11.3526 36.5569 11.6495 34.8666C11.9921 33.1993 11.3868 31.4519 10.0735 30.2985L5.11701 25.9587C4.59167 25.5019 4.45462 24.6911 4.80866 24.0629L8.60023 17.519C8.96569 16.8909 9.73085 16.6054 10.4275 16.8338L16.663 18.9123C18.2619 19.4833 20.0778 19.1522 21.3911 18.033C24.0749 15.7603 27.067 14.0472 30.299 12.9166C31.9436 12.3113 33.1199 10.9523 33.4511 9.26208L34.7301 2.84381C34.7301 2.84381 34.7301 2.82096 34.7301 2.80954C34.8672 2.1129 35.4953 1.59898 36.2262 1.59898H43.798C44.5289 1.59898 45.157 2.10148 45.294 2.80954L46.5731 9.25066C46.9043 10.9409 48.092 12.3113 49.748 12.9166C52.9571 14.0358 55.9493 15.7603 58.6102 18.0101C59.9007 19.1522 61.728 19.4948 63.3383 18.9123L69.5853 16.8338C70.2933 16.6054 71.0585 16.8909 71.4239 17.5305L75.2041 24.0515C75.2041 24.0515 75.2041 24.0515 75.2041 24.0629C75.5467 24.6911 75.4097 25.5019 74.8843 25.9473L69.9507 30.2642C69.9507 30.2642 69.9279 30.2756 69.9279 30.2871C68.6145 31.4405 68.0207 33.1878 68.3518 34.8438C68.6602 36.534 68.8087 38.2128 68.8087 39.983C68.8087 41.7532 68.6602 43.4205 68.3518 45.1222C68.0549 46.801 68.6488 48.5483 69.9279 49.6789L74.8843 54.0187C75.4097 54.4755 75.5467 55.2863 75.1927 55.9145L75.2155 55.9487ZM39.995 20.6939C29.3283 20.6939 20.6488 29.362 20.6488 40.0058C20.6488 50.6497 29.3283 59.3178 39.995 59.3178C50.6616 59.3178 59.3411 50.6497 59.3411 40.0058C59.3411 29.362 50.6616 20.6939 39.995 20.6939ZM39.995 57.7189C30.2077 57.7189 22.2476 49.7703 22.2476 40.0058C22.2476 30.2414 30.2077 22.2928 39.995 22.2928C49.7823 22.2928 57.7423 30.2414 57.7423 40.0058C57.7423 49.7703 49.7823 57.7189 39.995 57.7189ZM31.8408 36.7624C31.4639 36.5226 30.9728 36.6368 30.733 37.0023C30.0935 38.0073 29.5795 39.0694 29.2027 40.1886C29.0656 40.6111 29.2826 41.0565 29.7052 41.205C29.7851 41.2392 29.8765 41.2507 29.9564 41.2507C30.2876 41.2507 30.596 41.0451 30.7102 40.7025C31.0414 39.7089 31.4982 38.7496 32.0692 37.8588C32.309 37.4819 32.1948 36.9908 31.8294 36.751L31.8408 36.7624ZM35.6895 32.0572C34.9357 32.5369 34.2162 33.0965 33.531 33.7132C33.3369 33.8959 33.1427 34.0786 32.96 34.2614C32.6516 34.5697 32.6402 35.0836 32.96 35.392C33.1199 35.5519 33.3254 35.6318 33.531 35.6318C33.7366 35.6318 33.9421 35.5519 34.0906 35.4034C34.2619 35.2321 34.4332 35.0608 34.6159 34.9009C35.2326 34.3413 35.8836 33.8388 36.5574 33.4048C36.9343 33.165 37.0371 32.6739 36.7972 32.2971C36.5574 31.9202 36.0663 31.8174 35.6895 32.0458V32.0572ZM30.733 50.1243C30.6074 49.7018 30.162 49.4619 29.7394 49.5761C29.3169 49.7018 29.077 50.1472 29.1912 50.5697C29.3626 51.1407 29.5453 51.7118 29.7623 52.2599C29.8879 52.5797 30.1848 52.7739 30.5046 52.7739C30.596 52.7739 30.6987 52.751 30.7901 52.7168C31.2012 52.5569 31.4068 52.0886 31.2469 51.6775C31.0528 51.1864 30.8815 50.6611 30.7216 50.1243H30.733ZM29.3968 47.8631C29.8308 47.8174 30.1506 47.4177 30.1049 46.9837C30.0364 46.4013 30.0135 45.8074 30.0135 45.225C30.0135 44.7567 30.0364 44.2771 30.082 43.8088C30.1277 43.3749 29.7965 42.9751 29.3625 42.9409C28.9286 42.8952 28.5289 43.2264 28.4946 43.6604C28.4489 44.1857 28.4261 44.711 28.4261 45.2364C28.4261 45.8759 28.4603 46.5269 28.5289 47.1779C28.5745 47.589 28.9172 47.8859 29.3283 47.8859C29.3625 47.8859 29.3854 47.8859 29.4197 47.8859L29.3968 47.8631ZM51.5067 31.8517C51.3354 32.2628 51.541 32.731 51.9407 32.8909C52.4775 33.1079 52.98 33.3363 53.4482 33.5647C53.5624 33.6218 53.6766 33.6447 53.8022 33.6447C54.0992 33.6447 54.3847 33.4848 54.5217 33.1993C54.7159 32.7996 54.556 32.3199 54.1563 32.1257C53.6538 31.8745 53.1056 31.6347 52.546 31.4063C52.1349 31.235 51.6666 31.4405 51.5067 31.8402V31.8517ZM42.3133 29.7731C41.1256 29.8988 39.9607 30.15 38.8758 30.5269C38.4532 30.6754 38.2362 31.1208 38.3847 31.5433C38.4989 31.8745 38.8072 32.0801 39.1384 32.0801C39.2298 32.0801 39.3097 32.0686 39.4011 32.0344C40.3833 31.7032 41.4225 31.4634 42.496 31.3492C42.93 31.3035 43.2498 30.9038 43.2041 30.4698C43.1584 30.0244 42.7587 29.7046 42.3247 29.7617L42.3133 29.7731ZM49.2341 30.3327C48.0806 30.0472 46.9271 29.8417 45.8079 29.7503C45.374 29.716 44.9857 30.0358 44.94 30.4812C44.9057 30.9266 45.2255 31.3035 45.6709 31.3492C46.7102 31.4405 47.7723 31.6232 48.8458 31.8859C48.9143 31.8973 48.9828 31.9088 49.0399 31.9088C49.394 31.9088 49.7251 31.6689 49.8165 31.3035C49.9193 30.8695 49.668 30.4355 49.2341 30.3327ZM11.6038 65.5876C11.2726 65.3021 10.7587 65.3363 10.4732 65.6789C10.1877 66.0101 10.2219 66.524 10.5645 66.8095C11.0099 67.1864 11.4668 67.5633 11.9464 67.9173C12.0949 68.0201 12.2548 68.0772 12.4261 68.0772C12.6659 68.0772 12.9057 67.963 13.0656 67.7574C13.3283 67.4034 13.2598 66.9009 12.9057 66.6382C12.4603 66.307 12.0264 65.953 11.6038 65.599V65.5876ZM18.7073 68.6939C17.6909 68.8766 17.1427 68.8995 16.9029 68.8995C16.8915 68.8995 16.6059 68.8995 15.7723 68.4769C15.384 68.2714 14.8929 68.4312 14.6987 68.831C14.5046 69.2193 14.6531 69.7103 15.0528 69.9045C15.8636 70.3156 16.4461 70.5098 16.9143 70.5098C17.4168 70.5098 18.1363 70.4298 18.9928 70.2814C19.4268 70.2014 19.7123 69.7903 19.6438 69.3563C19.5753 68.9223 19.1527 68.6254 18.7187 68.7053L18.7073 68.6939ZM23.6752 67.392C23.1156 67.5747 22.5788 67.746 22.0649 67.8945C21.6423 68.0201 21.4025 68.4655 21.5167 68.8881C21.6195 69.2421 21.9393 69.4705 22.2819 69.4705C22.3504 69.4705 22.4304 69.4705 22.5103 69.4362C23.0471 69.2764 23.5952 69.105 24.1777 68.9109C24.6002 68.7739 24.8172 68.317 24.6802 67.8945C24.5431 67.4719 24.0863 67.2549 23.6638 67.392H23.6752ZM58.8386 67.6775C58.3476 67.4491 57.8336 67.1978 57.3426 66.9352C56.9543 66.7296 56.4632 66.8781 56.2576 67.2778C56.0521 67.6661 56.2005 68.1572 56.5888 68.3513C57.1142 68.6254 57.6395 68.8881 58.1648 69.1279C58.2676 69.1736 58.3818 69.1964 58.496 69.1964C58.793 69.1964 59.0899 69.0251 59.2269 68.7282C59.4097 68.3285 59.2269 67.8488 58.8386 67.6661V67.6775ZM67.4725 65.8616C67.0157 66.2385 66.5703 66.604 66.1591 66.9352C65.8165 67.2093 65.748 67.7118 66.0221 68.0544C66.182 68.2599 66.4104 68.3627 66.6502 68.3627C66.8215 68.3627 67.0042 68.3056 67.1413 68.1914C67.5753 67.8488 68.0207 67.4834 68.4889 67.0951C68.8315 66.8095 68.8772 66.307 68.5917 65.9644C68.3062 65.6218 67.8037 65.5761 67.4611 65.8616H67.4725ZM63.8179 68.534C63.3611 68.7739 62.9842 68.8881 62.6987 68.8881C62.3904 68.8881 61.9907 68.8195 61.4996 68.6939C61.0656 68.5797 60.6316 68.831 60.5174 69.2535C60.4032 69.6761 60.6545 70.1215 61.077 70.2357C61.6937 70.407 62.2419 70.4869 62.6873 70.4869C63.2355 70.4869 63.8408 70.3156 64.5374 69.9502C64.9257 69.7446 65.0856 69.2649 64.88 68.8766C64.6745 68.4883 64.1948 68.3285 63.8065 68.534H63.8179ZM76.3918 28.0487C75.9578 28.1058 75.6381 28.4941 75.6952 28.9395C75.7637 29.5219 75.8322 30.0815 75.8779 30.6183C75.9122 31.0294 76.2662 31.3377 76.6773 31.3377C76.7002 31.3377 76.723 31.3377 76.7573 31.3377C77.1912 31.2921 77.5224 30.9038 77.4768 30.4698C77.4197 29.9216 77.3511 29.3392 77.2826 28.7453C77.2255 28.3113 76.8372 27.9916 76.3918 28.0487ZM73.0571 36.1914C72.566 36.4655 72.0064 36.7853 71.5153 37.1165C71.1498 37.3677 71.0699 37.8702 71.3212 38.2357C71.481 38.4527 71.7209 38.5783 71.9721 38.5783C72.132 38.5783 72.2919 38.5326 72.4289 38.4298C72.8515 38.1329 73.3426 37.8588 73.8222 37.5961C74.2105 37.3791 74.3476 36.8995 74.1306 36.5112C73.9136 36.1229 73.4339 35.9858 73.0456 36.2028L73.0571 36.1914ZM76.8144 32.3884C76.3804 32.3542 75.9921 32.6853 75.9578 33.1307C75.9122 33.7703 75.7865 34.2271 75.5924 34.4898C75.4896 34.6154 75.3526 34.7524 75.1927 34.8895C74.8501 35.175 74.8044 35.6775 75.0899 36.0201C75.2498 36.2143 75.4782 36.3056 75.7066 36.3056C75.8893 36.3056 76.0606 36.2485 76.2205 36.1229C76.4832 35.9059 76.7002 35.6889 76.8715 35.4605C77.2712 34.9466 77.4996 34.2157 77.5681 33.2449C77.6024 32.7995 77.2712 32.4227 76.8258 32.3884H76.8144Z" fill="url(#paint0_linear_245_581)"/>
</g>
<defs>
<linearGradient id="paint0_linear_245_581" x1="16.8888" y1="14.2681" x2="73.0892" y2="52.7795" gradientUnits="userSpaceOnUse">
<stop stop-color="#43BDE3"/>
<stop offset="0.235" stop-color="#4A82AB"/>
<stop offset="0.48" stop-color="#4D8DC8"/>
<stop offset="0.7" stop-color="#3F76CA"/>
<stop offset="0.885" stop-color="#705AC9"/>
</linearGradient>
<clipPath id="clip0_245_581">
<rect width="80" height="80" fill="white"/>
</clipPath>
</defs>
</svg>
