<svg width="80" height="80" viewBox="0 0 80 80" fill="none" xmlns="http://www.w3.org/2000/svg">
<g clip-path="url(#clip0_245_229)">
<path d="M62.1328 37.1828C62.067 36.9414 61.9572 36.7438 61.7597 36.5902L53.5079 29.7869C53.3104 29.6113 53.069 29.5455 52.8276 29.5455C52.9812 20.2622 50.3476 9.26707 40.1207 0.269084C39.7037 -0.104003 39.0453 -0.0820567 38.6503 0.29103C28.6647 9.72794 26.2725 20.6353 26.6456 29.7869L18.3938 36.5902C18.2183 36.7438 18.0866 36.9414 18.0207 37.1828L14.0265 53.9497C13.9387 54.3667 14.0704 54.8056 14.3996 55.069C14.5971 55.2226 14.8385 55.3104 15.0799 55.3104C15.2555 55.3104 15.4091 55.2665 15.5628 55.2007L30.7935 47.717C31.2324 48.7265 31.5397 49.3191 31.5616 49.341C31.7591 49.6922 32.1322 49.9116 32.5272 49.9116H47.4946C47.9116 49.9116 48.3066 49.6702 48.4822 49.2971C48.4822 49.2532 48.7895 48.6607 49.1845 47.6292L64.5688 55.2007C64.7225 55.2885 64.898 55.3104 65.0517 55.3104C65.2931 55.3104 65.5345 55.2226 65.732 55.069C66.0612 54.8056 66.2148 54.3667 66.1051 53.9497L62.1109 37.1828H62.1328ZM16.682 52.194L20.0617 38.0387L26.7993 32.4863C27.3479 37.9948 28.7964 42.6474 29.9376 45.676L16.682 52.194ZM46.7704 47.717H33.1856C32.2419 45.7199 29.2353 38.8287 28.8183 30.1819C28.8403 30.2038 28.8403 30.2477 28.8842 30.2697C29.4767 30.8842 30.2229 31.4109 31.0568 31.8498C31.2105 31.9376 31.386 31.9595 31.5616 31.9595C31.9566 31.9595 32.3517 31.7401 32.5492 31.367C32.8345 30.8183 32.615 30.1599 32.0664 29.8966C31.4299 29.5674 30.8813 29.1724 30.4643 28.7334C30.0473 28.2945 29.345 28.2945 28.9061 28.7334C28.8622 28.7773 28.8183 28.8432 28.7744 28.909C28.7525 27.285 28.8183 25.5951 28.9939 23.8833C28.9939 24.0808 29.0597 24.3003 29.2134 24.4759C29.4328 24.7392 29.7401 24.8928 30.0693 24.8928C30.3107 24.8928 30.5521 24.805 30.7496 24.6514C31.2544 24.2344 31.8469 23.8833 32.5272 23.5761C33.0759 23.3127 33.3173 22.6763 33.0759 22.1276C32.8345 21.5789 32.1761 21.3375 31.6274 21.5789C30.7935 21.952 30.0473 22.4129 29.3889 22.9396C29.2134 23.0713 29.1256 23.2469 29.0597 23.4444C29.8937 16.5971 32.7467 9.24512 39.4184 2.63928C48.3505 10.913 50.7427 20.8547 50.6329 29.3699C50.6329 29.3699 50.6329 29.3699 50.6329 29.3479C50.2818 28.8432 49.6015 28.7334 49.0967 29.0626C48.57 29.4138 47.9335 29.743 47.2313 30.0283C46.6607 30.2477 46.3973 30.8842 46.6168 31.4548C46.7923 31.8937 47.2093 32.1351 47.6263 32.1351C47.758 32.1351 47.8897 32.1132 48.0433 32.0473C48.8992 31.6962 49.6673 31.3012 50.3257 30.8622C50.4354 30.7964 50.5232 30.6867 50.5891 30.5769C50.2599 38.9604 47.6263 45.7199 46.7704 47.7389V47.717ZM49.9307 45.5443C51.006 42.4279 52.3228 37.5997 52.6959 31.9815L60.0479 38.0387L63.4276 52.194L49.9307 45.5443ZM39.6817 54.674C39.0672 54.674 38.5844 55.1568 38.5844 55.7713V78.9027C38.5844 79.5172 39.0672 80 39.6817 80C40.2962 80 40.7791 79.5172 40.7791 78.9027V55.7713C40.7791 55.1568 40.2962 54.674 39.6817 54.674ZM32.5053 62.9916C31.8908 62.9916 31.408 63.4744 31.408 64.0889V67.5126C31.408 68.127 31.8908 68.6099 32.5053 68.6099C33.1198 68.6099 33.6026 68.127 33.6026 67.5126V64.0889C33.6026 63.4744 33.1198 62.9916 32.5053 62.9916ZM32.5053 69.8389C31.8908 69.8389 31.408 70.3217 31.408 70.9362V72.5821C31.408 73.1966 31.8908 73.6795 32.5053 73.6795C33.1198 73.6795 33.6026 73.1966 33.6026 72.5821V70.9362C33.6026 70.3217 33.1198 69.8389 32.5053 69.8389ZM32.5053 57.922C31.8908 57.922 31.408 58.4048 31.408 59.0193V60.6653C31.408 61.2798 31.8908 61.7626 32.5053 61.7626C33.1198 61.7626 33.6026 61.2798 33.6026 60.6653V59.0193C33.6026 58.4048 33.1198 57.922 32.5053 57.922ZM46.8582 69.8389C46.2437 69.8389 45.7609 70.3217 45.7609 70.9362V72.5821C45.7609 73.1966 46.2437 73.6795 46.8582 73.6795C47.4727 73.6795 47.9555 73.1966 47.9555 72.5821V70.9362C47.9555 70.3217 47.4727 69.8389 46.8582 69.8389ZM46.8582 62.9916C46.2437 62.9916 45.7609 63.4744 45.7609 64.0889V67.5126C45.7609 68.127 46.2437 68.6099 46.8582 68.6099C47.4727 68.6099 47.9555 68.127 47.9555 67.5126V64.0889C47.9555 63.4744 47.4727 62.9916 46.8582 62.9916ZM46.8582 57.922C46.2437 57.922 45.7609 58.4048 45.7609 59.0193V60.6653C45.7609 61.2798 46.2437 61.7626 46.8582 61.7626C47.4727 61.7626 47.9555 61.2798 47.9555 60.6653V59.0193C47.9555 58.4048 47.4727 57.922 46.8582 57.922ZM48.4164 24.2783C48.5919 24.3881 48.8114 24.4539 49.0089 24.4539C49.3601 24.4539 49.7331 24.2783 49.9307 23.9491C50.2599 23.4444 50.1062 22.764 49.6015 22.4348C48.9211 21.9959 48.153 21.6009 47.319 21.2717C46.7484 21.0522 46.112 21.3375 45.8925 21.9081C45.6731 22.4787 45.9584 23.1152 46.529 23.3346C47.2313 23.598 47.8677 23.9272 48.4164 24.2783ZM36.9165 22.4129C36.9165 22.4129 37.0043 22.4129 37.0262 22.4129C38.5186 22.2593 40.3182 22.2373 41.8544 22.369C42.4689 22.4129 42.9956 21.974 43.0395 21.3595C43.0834 20.745 42.6445 20.2183 42.03 20.1744C40.3621 20.0427 38.4089 20.0646 36.7848 20.2402C36.1703 20.3061 35.7534 20.8547 35.8192 21.4473C35.885 22.0179 36.3459 22.4348 36.9165 22.4348V22.4129ZM42.1617 31.1475C40.4279 31.3231 38.5186 31.3012 36.9165 31.1475C36.324 31.1256 35.7753 31.5206 35.7095 32.1351C35.6436 32.7277 36.0825 33.2763 36.697 33.3422C37.6188 33.4299 38.6503 33.4738 39.7695 33.4738C40.6693 33.4738 41.5472 33.4299 42.3811 33.3422C42.9737 33.2763 43.4346 32.7496 43.3687 32.1351C43.3029 31.5426 42.7542 31.1256 42.1617 31.1475Z" fill="url(#paint0_linear_245_229)"/>
</g>
<defs>
<linearGradient id="paint0_linear_245_229" x1="23.7111" y1="14.268" x2="70.6771" y2="36.7708" gradientUnits="userSpaceOnUse">
<stop stop-color="#43BDE3"/>
<stop offset="0.235" stop-color="#4A82AB"/>
<stop offset="0.48" stop-color="#4D8DC8"/>
<stop offset="0.7" stop-color="#3F76CA"/>
<stop offset="0.885" stop-color="#705AC9"/>
</linearGradient>
<clipPath id="clip0_245_229">
<rect width="80" height="80" fill="white"/>
</clipPath>
</defs>
</svg>
