<svg width="80" height="80" viewBox="0 0 80 80" fill="none" xmlns="http://www.w3.org/2000/svg">
<g clip-path="url(#clip0_245_208)">
<path d="M78.8646 56.9389H75.413V16.9956C75.413 14.248 73.1649 11.9999 70.4173 11.9999H9.58274C6.83508 11.9999 4.587 14.248 4.587 16.9956V56.9389H1.1354C0.499574 56.9389 0 57.4384 0 58.0742V61.1171C0 64.4325 2.70224 67.1347 6.0176 67.1347H73.9824C77.2978 67.1347 80 64.4325 80 61.1171V58.0742C80 57.4384 79.5004 56.9389 78.8646 56.9389ZM6.85779 16.9956C6.85779 15.4969 8.08402 14.2707 9.58274 14.2707H70.4173C71.916 14.2707 73.1422 15.4969 73.1422 16.9956V56.9389H6.85779V16.9956ZM77.7292 61.1398C77.7292 63.2062 76.0488 64.8866 73.9824 64.8866H6.0176C3.95118 64.8866 2.27079 63.2062 2.27079 61.1398V59.2323H5.65427C5.65427 59.2323 5.69969 59.2323 5.7224 59.2323H74.2776C74.2776 59.2323 74.323 59.2323 74.3457 59.2323H77.7292V61.1398ZM60.2895 29.5077C59.6991 29.5985 59.1541 29.8029 58.6546 30.1208L57.2694 28.94C56.7925 28.5312 56.0886 28.5994 55.6798 29.0535C55.2711 29.5304 55.3165 30.257 55.7934 30.6658L57.1104 31.8012C56.6108 32.7095 56.4292 33.7314 56.5881 34.7759C56.9515 37.0467 58.8816 38.659 61.0389 38.659C61.266 38.659 61.493 38.659 61.7201 38.6136C64.1499 38.2275 65.8076 35.8659 65.4215 33.3453C65.0128 30.8247 62.6739 29.1216 60.2668 29.5077H60.2895ZM61.3795 36.3655C60.1987 36.5698 59.0406 35.6842 58.8362 34.4126C58.7454 33.7768 58.8816 33.1637 59.2223 32.6641C59.5629 32.1872 60.0625 31.8466 60.6301 31.7558C60.7437 31.7558 60.8572 31.7331 60.9708 31.7331C62.038 31.7331 63.0145 32.5733 63.1961 33.7086C63.4005 34.9803 62.583 36.1611 61.3795 36.3655ZM44.4848 38.4092L45.484 35.3436C45.6883 34.7532 45.3477 34.1174 44.7573 33.913C44.1669 33.7086 43.5311 34.0493 43.3267 34.6397L42.4411 37.3192C41.8507 37.183 41.2149 37.1375 40.6018 37.2511C39.6707 37.41 38.8305 37.8188 38.172 38.4319L36.6279 37.3419C36.1283 36.9786 35.4016 37.0921 35.0383 37.6144C34.675 38.1367 34.7885 38.8406 35.3108 39.204L36.9458 40.3621C36.7187 41.0206 36.6506 41.7245 36.7641 42.4285C36.9458 43.6093 37.6043 44.6539 38.6035 45.3351C39.3755 45.8801 40.3066 46.1753 41.2603 46.1753C41.5101 46.1753 41.7599 46.1753 42.0097 46.1072C44.5075 45.6984 46.2333 43.3822 45.8473 40.9525C45.6883 39.976 45.1888 39.1131 44.4621 38.4319L44.4848 38.4092ZM41.669 43.8364C41.0332 43.9499 40.4201 43.791 39.9205 43.4503C39.4437 43.1097 39.103 42.6102 39.0122 42.0425C38.9214 41.4748 39.0576 40.9071 39.421 40.4075C39.7843 39.9079 40.3293 39.59 40.9651 39.4765C41.1013 39.4765 41.2376 39.4538 41.3738 39.4538C41.8507 39.4538 42.3276 39.59 42.7363 39.8852C43.2132 40.2258 43.5538 40.7254 43.6446 41.2931C43.8263 42.4966 42.9634 43.632 41.6917 43.8364H41.669ZM23.2075 41.9743C22.6398 41.7018 21.9586 41.9743 21.7088 42.5193L20.369 45.4032C19.824 45.2897 19.2563 45.2443 18.6886 45.3351C16.2589 45.7211 14.5785 48.0373 14.9645 50.4671C15.3278 52.6698 17.2353 54.2366 19.3926 54.2366C19.6196 54.2366 19.8694 54.2366 20.0965 54.1912C22.5263 53.8052 24.2066 51.4889 23.8206 49.0592C23.6617 48.0146 23.1167 47.129 22.39 46.4705L23.7752 43.4958C24.0477 42.9281 23.7752 42.2468 23.2302 41.997L23.2075 41.9743ZM19.7332 51.9431C18.5524 52.1475 17.3943 51.3073 17.2126 50.1038C17.0309 48.9002 17.8484 47.7649 19.0519 47.5832C20.2555 47.3788 21.3909 48.219 21.5725 49.4225C21.7769 50.626 20.9367 51.7614 19.7332 51.9431ZM31.7457 33.8222C31.9728 33.1409 32.0636 32.4143 31.9273 31.6649C31.5186 29.1671 29.157 27.464 26.6591 27.85C25.4329 28.0544 24.3883 28.7129 23.6617 29.6893C22.935 30.6885 22.6398 31.9147 22.8442 33.1182C23.0485 34.3672 23.7525 35.4117 24.6835 36.093L23.5481 38.5227C23.2756 39.0904 23.5481 39.7717 24.0931 40.0215C24.2521 40.0896 24.411 40.135 24.57 40.135C25.0014 40.135 25.4102 39.8852 25.5918 39.4765L26.7726 36.9332C26.977 36.9559 27.1587 36.9786 27.363 36.9786C27.6128 36.9786 27.8399 36.9786 28.0897 36.9105C29.0434 36.7515 29.8609 36.3201 30.5194 35.7069L31.9727 36.7515C32.1771 36.8878 32.4042 36.9559 32.6313 36.9559C32.9946 36.9559 33.3352 36.7969 33.5623 36.479C33.9256 35.9794 33.8121 35.2528 33.2898 34.8895L31.723 33.7768L31.7457 33.8222ZM27.7491 34.7078C26.5001 34.9122 25.2739 34.0493 25.0695 32.7776C24.9787 32.1645 25.115 31.5514 25.4783 31.0291C25.8416 30.5068 26.3866 30.1889 26.9997 30.0981C27.1133 30.0981 27.2495 30.0754 27.363 30.0754C28.4984 30.0754 29.4749 30.8929 29.6565 32.051C29.8609 33.3226 28.998 34.5261 27.7264 34.7305L27.7491 34.7078ZM52.7505 25.0796C53.0003 24.3757 53.0911 23.649 52.9549 22.8997C52.5688 20.4699 50.2753 18.8123 47.8229 19.1756C45.3931 19.5616 43.7127 21.8778 44.0988 24.3076C44.2804 25.4657 44.9163 26.4648 45.7792 27.1234L44.8027 30.0527C44.5984 30.6431 44.939 31.2789 45.5294 31.4833C45.6429 31.5287 45.7565 31.5514 45.8927 31.5514C46.3696 31.5514 46.8237 31.2562 46.96 30.7793L47.8683 28.0317C48.0727 28.0544 48.277 28.0998 48.5041 28.0998C48.7312 28.0998 48.981 28.0998 49.2081 28.0544C50.0483 27.9181 50.8203 27.5548 51.4334 27.0098L52.637 28.0317C52.8413 28.2133 53.1138 28.3042 53.3863 28.3042C53.7042 28.3042 54.0221 28.1679 54.2492 27.9181C54.658 27.4413 54.6125 26.7146 54.1357 26.3059L52.7278 25.1023L52.7505 25.0796ZM50.3208 24.898C49.9801 25.3748 49.4578 25.6928 48.8901 25.7836C47.7093 25.988 46.5512 25.1478 46.3696 23.9442C46.1879 22.7407 47.0054 21.6053 48.2089 21.4237C49.4124 21.2193 50.5478 22.0595 50.7295 23.263C50.8203 23.8534 50.6841 24.4211 50.3435 24.898H50.3208Z" fill="url(#paint0_linear_245_208)"/>
</g>
<defs>
<linearGradient id="paint0_linear_245_208" x1="14.9" y1="21.8332" x2="56.346" y2="66.0429" gradientUnits="userSpaceOnUse">
<stop stop-color="#43BDE3"/>
<stop offset="0.235" stop-color="#4A82AB"/>
<stop offset="0.48" stop-color="#4D8DC8"/>
<stop offset="0.7" stop-color="#3F76CA"/>
<stop offset="0.885" stop-color="#705AC9"/>
</linearGradient>
<clipPath id="clip0_245_208">
<rect width="80" height="80" fill="white"/>
</clipPath>
</defs>
</svg>
