<svg width="80" height="80" viewBox="0 0 80 80" fill="none" xmlns="http://www.w3.org/2000/svg">
<g clip-path="url(#clip0_245_918)">
<path d="M72.2547 44.1942C72.2965 43.7557 72.3173 43.2756 72.3173 42.7745C72.3173 33.0251 64.405 25.0919 54.6764 25.0919C54.1962 25.0919 53.7369 25.0919 53.3194 25.1336C50.4802 16.762 42.5052 11 33.6117 11C22.1086 11 12.7766 20.3737 12.7766 31.8768C12.7766 32.4405 12.7975 33.0042 12.8392 33.5678C5.24008 35.9478 0 43.0251 0 51.0626C0 61.167 8.20459 69.3925 18.2881 69.3925H66.8267C74.0919 69.3925 80 63.4635 80 56.1983C80 51.0418 76.9311 46.3027 72.2756 44.1942H72.2547ZM66.8058 67.3257H18.2672C9.33194 67.3257 2.06681 60.0397 2.06681 51.0835C2.06681 43.6722 7.05637 37.2004 14.2171 35.3424C14.7182 35.2171 15.0522 34.7161 14.9896 34.1942C14.8852 33.4426 14.8434 32.6493 14.8434 31.8768C14.8434 21.5219 23.2568 13.0877 33.5908 13.0877C41.858 13.0877 49.2484 18.62 51.5658 26.5532C51.7119 27.0543 52.1921 27.3466 52.714 27.2839C53.2985 27.2004 53.9457 27.1587 54.6555 27.1587C63.2359 27.1587 70.2088 34.1524 70.2088 42.7537C70.2088 43.4843 70.167 44.1106 70.0835 44.6743C70 45.1545 70.2923 45.6347 70.7516 45.8017C75.0104 47.4301 77.8914 51.6054 77.8914 56.1775C77.8914 62.3152 72.9228 67.2839 66.8058 67.2839V67.3257ZM19.5407 39.3507C17.7244 39.5386 15.9916 39.7683 14.3841 40.0397C13.8205 40.1232 13.4238 40.666 13.5073 41.2296C13.5908 41.7516 14.0292 42.1065 14.5303 42.1065C14.5929 42.1065 14.6347 42.1065 14.6973 42.1065C16.2839 41.8559 17.9749 41.6263 19.7495 41.4384C20.3132 41.3758 20.7307 40.8539 20.6681 40.2902C20.6054 39.7265 20.0835 39.2881 19.5198 39.3716L19.5407 39.3507ZM26.3466 52.19C24.8225 52.0647 23.3612 51.9395 21.9415 51.7724C21.3361 51.7098 20.856 52.1273 20.7933 52.691C20.7307 53.2547 21.1482 53.7766 21.7119 53.8392C23.1524 54.0063 24.6347 54.1315 26.1795 54.2568C26.2004 54.2568 26.2422 54.2568 26.263 54.2568C26.8058 54.2568 27.2651 53.8392 27.3069 53.2965C27.3486 52.7119 26.9311 52.2109 26.3466 52.1691V52.19ZM17.5783 51.1879C16.0334 50.9582 14.5929 50.6868 13.2568 50.4154C12.714 50.2902 12.1294 50.666 12.0251 51.2296C11.8998 51.7933 12.2756 52.357 12.8392 52.4614C14.2171 52.7537 15.6994 53.0042 17.286 53.2547C17.3486 53.2547 17.3904 53.2547 17.453 53.2547C17.9541 53.2547 18.4134 52.8789 18.476 52.3779C18.5595 51.8142 18.1628 51.2714 17.5992 51.1879H17.5783ZM24.8017 41C24.8017 41 24.8434 41 24.8643 41C26.5136 40.8956 28.2255 40.8121 29.9791 40.7495C30.5637 40.7495 31.0021 40.2484 30.9812 39.6639C30.9812 39.0793 30.4175 38.5992 29.8956 38.6618C28.1211 38.7244 26.3883 38.8079 24.7182 38.9123C24.1336 38.9541 23.7161 39.4551 23.737 40.0188C23.7787 40.5616 24.238 41 24.7808 41H24.8017ZM35.1983 52.6284C33.6952 52.5866 32.2129 52.5449 30.7724 52.4614C30.1044 52.3779 29.7077 52.8789 29.6868 53.4426C29.666 54.0271 30.1044 54.5073 30.6681 54.5282C32.1294 54.6117 33.6326 54.6534 35.1566 54.6952H35.1775C35.7411 54.6952 36.2004 54.2359 36.2213 53.6722C36.2213 53.0877 35.7829 52.6284 35.1983 52.6075V52.6284ZM9.01879 49.3507C8.22547 49.1211 7.49478 48.8706 6.8476 48.5992C6.3048 48.3904 5.69937 48.6618 5.49061 49.1837C5.28184 49.7265 5.55324 50.3319 6.07516 50.5407C6.78497 50.8121 7.55741 51.0835 8.41336 51.334C8.51775 51.3549 8.62213 51.3758 8.70564 51.3758C9.14405 51.3758 9.56159 51.0835 9.70772 50.6242C9.87474 50.0814 9.56159 49.4969 9.01879 49.3299V49.3507ZM9.24844 41.0418C8.39249 41.2505 7.59917 41.4802 6.88935 41.7307C6.34656 41.9186 6.05428 42.5031 6.22129 43.0459C6.36743 43.4843 6.76409 43.7557 7.20251 43.7557C7.30689 43.7557 7.41127 43.7557 7.53653 43.6931C8.20459 43.4635 8.95616 43.2547 9.74948 43.0459C10.3132 42.8998 10.6472 42.3361 10.501 41.7724C10.3549 41.2088 9.79123 40.8539 9.22756 41.0209L9.24844 41.0418ZM44.0501 52.6075C42.6096 52.6493 41.1273 52.6701 39.6242 52.6701C39.0397 52.6701 38.5804 53.1294 38.5804 53.714C38.5804 54.2985 39.0397 54.7578 39.6242 54.7578C41.1482 54.7578 42.6305 54.737 44.0919 54.6952C44.6764 54.6952 45.1148 54.1942 45.1148 53.6305C45.1148 53.0668 44.6138 52.5866 44.0501 52.6075ZM61.6075 50.9374C60.2714 51.1879 58.81 51.4175 57.2651 51.6263C56.7015 51.7098 56.2839 52.2317 56.3674 52.7954C56.4301 53.3173 56.8894 53.714 57.4113 53.714C57.453 53.714 57.4948 53.714 57.5574 53.714C59.1441 53.5052 60.6472 53.2756 62.0042 53.0042C62.5678 52.8998 62.9436 52.357 62.8393 51.7933C62.7349 51.2296 62.1712 50.8539 61.6284 50.9582L61.6075 50.9374ZM65.4906 43.9645C66.2839 44.1942 67.0146 44.4447 67.6618 44.6952C67.7871 44.7369 67.9123 44.7578 68.0376 44.7578C68.4551 44.7578 68.8518 44.5073 69.0188 44.0898C69.2276 43.547 68.9562 42.9415 68.4134 42.7328C67.7244 42.4614 66.9311 42.19 66.0752 41.9395C65.5115 41.7724 64.9478 42.0856 64.7808 42.6493C64.6138 43.1921 64.9269 43.7766 65.4906 43.9436V43.9645ZM40.2505 40.7286C40.8142 40.7286 41.2735 40.2902 41.2944 39.7056C41.2944 39.1211 40.8559 38.6409 40.2714 38.6409C39.3111 38.62 38.3299 38.5992 37.3695 38.5783C36.5971 38.5783 35.8455 38.5783 35.0939 38.5783C34.5094 38.5783 34.0501 39.0376 34.0501 39.6221C34.0501 40.2067 34.5303 40.666 35.0939 40.666C35.8246 40.666 36.5762 40.666 37.3278 40.666C38.2881 40.666 39.2484 40.7077 40.2088 40.7286H40.2296H40.2505ZM68.0376 49.2255C67.3904 49.476 66.6597 49.7056 65.8664 49.9353C65.3027 50.1023 64.9896 50.666 65.1566 51.2296C65.2818 51.6889 65.6994 51.9812 66.1587 51.9812C66.2422 51.9812 66.3466 51.9812 66.4509 51.9395C67.3069 51.6889 68.1002 51.4384 68.81 51.167C69.3528 50.9582 69.6242 50.3528 69.4155 49.81C69.2067 49.2672 68.6013 48.9958 68.0585 49.2046L68.0376 49.2255ZM50.5428 41.3549C51.0647 41.3549 51.524 40.9582 51.5866 40.4154C51.6493 39.8518 51.2109 39.3299 50.6472 39.2881C48.977 39.1211 47.2651 38.9958 45.4697 38.8914C44.9061 38.8497 44.405 39.2881 44.3633 39.8727C44.3215 40.4572 44.7599 40.9374 45.3445 40.9791C47.0981 41.0835 48.81 41.2296 50.4593 41.3758C50.501 41.3758 50.5219 41.3758 50.5637 41.3758L50.5428 41.3549ZM52.881 52.0856C51.4614 52.2109 50 52.3152 48.476 52.3987C47.8914 52.4405 47.453 52.9207 47.4948 53.5052C47.5157 54.0689 47.9958 54.4864 48.5386 54.4864C48.5386 54.4864 48.5804 54.4864 48.6012 54.4864C50.1461 54.4029 51.6493 54.2985 53.0689 54.1524C53.6534 54.1106 54.071 53.5887 54.0084 53.0251C53.9457 52.4405 53.4238 52.0438 52.881 52.0856ZM60.7516 42.7745C61.2317 42.7745 61.6701 42.4196 61.7745 41.9395C61.8789 41.3758 61.524 40.833 60.9603 40.7077C59.3737 40.3946 57.6409 40.1023 55.8246 39.8518C55.261 39.7683 54.7182 40.1649 54.6555 40.7495C54.5929 41.334 54.9687 41.8559 55.5532 41.9186C57.3486 42.1691 59.0397 42.4405 60.5846 42.7537C60.6472 42.7537 60.7307 42.7537 60.7933 42.7537L60.7516 42.7745Z" fill="url(#paint0_linear_245_918)"/>
</g>
<defs>
<linearGradient id="paint0_linear_245_918" x1="14.9" y1="21.4143" x2="58.8852" y2="65.715" gradientUnits="userSpaceOnUse">
<stop stop-color="#43BDE3"/>
<stop offset="0.235" stop-color="#4A82AB"/>
<stop offset="0.48" stop-color="#4D8DC8"/>
<stop offset="0.7" stop-color="#3F76CA"/>
<stop offset="0.885" stop-color="#705AC9"/>
</linearGradient>
<clipPath id="clip0_245_918">
<rect width="80" height="80" fill="white"/>
</clipPath>
</defs>
</svg>
