<svg width="80" height="80" viewBox="0 0 80 80" fill="none" xmlns="http://www.w3.org/2000/svg">
<g clip-path="url(#clip0_245_166)">
<path d="M71.3668 7.03176C68.8412 5.47187 66.1671 4.80335 63.5426 5.05095C63.295 2.59969 63.0226 1.08932 63.0226 1.01504C62.9236 0.420801 62.4036 -0.00012207 61.8093 -0.00012207H17.9344C17.3401 -0.00012207 16.8202 0.445561 16.7211 1.0398C16.7211 1.11408 16.4488 2.62445 16.2012 5.07571C13.5766 4.8281 10.9025 5.49663 8.37697 7.05652C4.41535 9.53253 2.40978 14.2865 3.15258 19.4861C3.84587 24.1905 6.64376 28.6969 11.0758 32.1633C13.329 33.946 15.8793 35.2336 18.3553 36.4468C20.6332 37.5858 22.7626 38.6505 24.7187 40.0865C27.888 42.414 30.2649 45.9795 30.9087 49.3716C31.6267 53.2094 29.844 57.072 26.0309 59.9442C25.4862 60.3651 25.3872 61.1327 25.7833 61.6774C26.0309 61.9993 26.4024 62.1726 26.7738 62.1726C27.0461 62.1726 27.2937 62.0983 27.5166 61.925C32.0972 58.4586 34.2266 53.7046 33.3352 48.9259C32.5924 44.89 29.9183 40.8293 26.2043 38.1057C24.0749 36.5458 21.7474 35.3821 19.4943 34.2432C17.043 33.0051 14.7156 31.8414 12.6357 30.2072C8.72361 27.1122 6.22284 23.1754 5.65336 19.1147C5.03435 14.9055 6.619 11.0924 9.73878 9.13637C12.1405 7.65076 14.6908 7.1308 17.0925 7.70028C17.4392 7.79932 17.8106 7.70028 18.1077 7.5022C18.4048 7.30412 18.5781 6.95748 18.6029 6.61084C18.7762 4.80335 18.9495 3.39202 19.0734 2.47589H60.8189C60.9427 3.36726 61.1408 4.80335 61.2894 6.58608C61.3141 6.93272 61.5122 7.27936 61.7846 7.47744C62.0817 7.70028 62.4284 7.77456 62.7998 7.67552C65.2262 7.10604 67.7023 7.60124 70.1535 9.11161C73.2733 11.0429 74.8332 14.856 74.2142 19.0652C73.6199 23.1506 71.1439 27.0875 67.2318 30.1577C65.1767 31.7919 62.8493 32.9556 60.3733 34.1936C58.1201 35.3326 55.7679 36.4963 53.6633 38.0562C49.9245 40.8046 47.2751 44.8652 46.5323 48.8764C45.641 53.7046 47.7703 58.4338 52.351 61.8755C52.8957 62.2964 53.688 62.1726 54.0842 61.6279C54.5051 61.0831 54.3813 60.3156 53.8366 59.8946C50.0235 57.0225 48.2408 53.1599 48.9588 49.3221C49.5778 45.9547 51.9548 42.3892 55.1489 40.037C57.1049 38.6009 59.2343 37.5362 61.5122 36.3973C63.9635 35.1593 66.5138 33.8717 68.7669 32.1138C73.199 28.6474 75.9969 24.141 76.6902 19.4118C77.433 14.2122 75.4522 9.45825 71.4906 7.007L71.3668 7.03176ZM17.5135 11.3153C15.6069 10.3991 13.5271 10.5972 11.3729 11.9343C9.36738 13.1723 8.37697 15.7473 8.79789 18.6443C9.39214 22.8782 12.8586 27.0627 18.281 30.1082C18.4791 30.2072 18.6772 30.2568 18.9 30.2568C19.1724 30.2568 19.4448 30.1577 19.6676 29.9844C20.0638 29.6625 20.2371 29.1426 20.0885 28.6474C18.7515 24.2153 18.1077 18.5947 18.2067 12.4295C18.2067 11.9343 17.9344 11.4886 17.5135 11.2905V11.3153ZM11.2739 18.2976C11.0015 16.3911 11.5463 14.7569 12.6852 14.0389C13.6756 13.4199 14.468 13.2218 15.1117 13.2218C15.3346 13.2218 15.5327 13.2466 15.7307 13.2961C15.6812 18.0995 16.1021 22.4573 16.9192 26.2704C13.7252 23.8934 11.6701 21.0212 11.2739 18.2976ZM61.3884 30.1082C66.7861 27.0627 70.2525 22.8782 70.8716 18.6443C71.2925 15.7473 70.3021 13.197 68.3213 11.9343C66.1919 10.5972 64.1368 10.3991 62.1807 11.2905C61.7351 11.4886 61.4627 11.9343 61.4627 12.4295C61.5865 18.6938 60.9427 24.1658 59.5809 28.6474C59.4324 29.1426 59.5809 29.6625 60.0019 29.9844C60.2247 30.1577 60.4971 30.2568 60.7694 30.2568C60.9675 30.2568 61.1903 30.2072 61.3884 30.1082ZM63.9635 13.2961C64.6815 13.1475 65.6719 13.197 66.9842 14.0389C68.1232 14.7569 68.6927 16.3911 68.3955 18.2976C68.1975 19.709 67.2318 23.002 62.7502 26.2951C63.5921 22.4573 63.9882 18.0995 63.9387 13.2961H63.9635ZM45.5419 27.8055L44.7496 23.2992L48.0922 20.1051C48.4389 19.7832 48.5627 19.288 48.4141 18.8423C48.2655 18.3967 47.8694 18.0748 47.3989 18.0005L42.7688 17.3567L40.7137 13.2466C40.5156 12.8256 40.0699 12.5533 39.5995 12.5533C39.1291 12.5533 38.7081 12.8256 38.4853 13.2466L36.4302 17.3567L31.8001 18.0005C31.3296 18.0748 30.9335 18.3967 30.7849 18.8423C30.6363 19.288 30.7849 19.7832 31.1068 20.1051L34.4494 23.2992L33.6571 27.8055C33.5828 28.276 33.7561 28.7464 34.1523 29.0188C34.3751 29.1673 34.6227 29.2664 34.8951 29.2664C35.0932 29.2664 35.2912 29.2168 35.4646 29.1178L39.5995 26.9884L43.7592 29.1178C44.1801 29.3406 44.6753 29.2911 45.0467 29.0188C45.4181 28.7464 45.6162 28.276 45.5419 27.8055ZM42.5707 21.9621C42.2736 22.2592 42.125 22.6554 42.1993 23.0763L42.6698 25.7752L40.169 24.4877C39.9957 24.3886 39.7976 24.3391 39.5995 24.3391C39.4014 24.3391 39.2033 24.3886 39.03 24.4877L36.554 25.7752L37.0245 23.0763C37.0987 22.6802 36.9502 22.2592 36.653 21.9621L34.697 20.0804L37.4454 19.6842C37.8415 19.6347 38.1882 19.3871 38.3863 19.0157L39.6243 16.5397L40.8623 19.0157C41.0356 19.3871 41.3822 19.6347 41.8032 19.6842L44.5515 20.0804L42.5955 21.9621H42.5707ZM42.2984 77.4744H37.272C36.5788 77.4744 36.034 78.0191 36.034 78.7124C36.034 79.4056 36.5788 79.9504 37.272 79.9504H42.2984C42.9916 79.9504 43.5364 79.4056 43.5364 78.7124C43.5364 78.0191 42.9916 77.4744 42.2984 77.4744ZM22.1931 77.4744H21.4751L21.6236 76.7563C21.7474 76.0878 21.3265 75.444 20.658 75.2955C19.9895 75.1469 19.3457 75.5926 19.1972 76.2611L18.7762 78.44C18.7019 78.8114 18.7762 79.1828 19.0238 79.4552C19.2467 79.7523 19.6181 79.9008 19.9895 79.9008H22.2179C22.9112 79.9008 23.4559 79.3561 23.4559 78.6628C23.4559 77.9696 22.9112 77.4248 22.2179 77.4248L22.1931 77.4744ZM25.0653 62.9154H22.8369C22.2426 62.9154 21.7474 63.3363 21.6236 63.9058L21.2027 66.0847C21.0789 66.7532 21.4998 67.397 22.1684 67.5455C22.2426 67.5455 22.3417 67.5455 22.416 67.5455C22.9855 67.5455 23.5054 67.1246 23.6292 66.5551L23.8521 65.3666H25.0653C25.7586 65.3666 26.3033 64.8219 26.3033 64.1286C26.3033 63.4354 25.7586 62.8906 25.0653 62.8906V62.9154ZM33.4838 62.9154H29.2745C28.5812 62.9154 28.0365 63.4601 28.0365 64.1534C28.0365 64.8467 28.5812 65.3914 29.2745 65.3914H33.4838C34.177 65.3914 34.7218 64.8467 34.7218 64.1534C34.7218 63.4601 34.177 62.9154 33.4838 62.9154ZM20.8313 74.3546C20.8313 74.3546 21.0046 74.3546 21.0789 74.3546C21.6484 74.3546 22.1684 73.9337 22.2922 73.3642L22.9607 69.972C23.0845 69.3035 22.6636 68.6597 21.995 68.5112C21.3265 68.3626 20.6828 68.8083 20.5342 69.4768L19.8657 72.869C19.7419 73.5375 20.1628 74.1813 20.8313 74.3298V74.3546ZM32.2457 77.4991H27.2194C26.5261 77.4991 25.9814 78.0438 25.9814 78.7371C25.9814 79.4304 26.5261 79.9751 27.2194 79.9751H32.2457C32.939 79.9751 33.4838 79.4304 33.4838 78.7371C33.4838 78.0438 32.939 77.4991 32.2457 77.4991ZM56.6345 69.9968L57.303 73.3889C57.4268 73.9832 57.9468 74.3793 58.5163 74.3793C58.5905 74.3793 58.6648 74.3793 58.7638 74.3793C59.4324 74.2555 59.8781 73.587 59.7295 72.9185L59.061 69.5263C58.9372 68.8578 58.2934 68.4121 57.6001 68.5607C56.9316 68.6845 56.4859 69.353 56.6345 70.0215V69.9968ZM41.9022 65.4162C42.5955 65.4162 43.1402 64.8714 43.1402 64.1782C43.1402 63.4849 42.5955 62.9402 41.9022 62.9402H37.693C36.9997 62.9402 36.455 63.4849 36.455 64.1782C36.455 64.8714 36.9997 65.4162 37.693 65.4162H41.9022ZM58.9619 75.345C58.2934 75.4688 57.8477 76.1373 57.9963 76.8058L58.1448 77.5239H57.4268C56.7335 77.5239 56.1888 78.0686 56.1888 78.7619C56.1888 79.4552 56.7335 79.9999 57.4268 79.9999H59.6552C60.0266 79.9999 60.3733 79.8266 60.6209 79.5542C60.8685 79.2571 60.9427 78.8857 60.8685 78.539L60.4475 76.3601C60.3237 75.6916 59.6552 75.2459 58.9867 75.3945L58.9619 75.345ZM57.204 67.5951C57.204 67.5951 57.3773 67.5951 57.4516 67.5951C58.1201 67.4713 58.5658 66.8027 58.4172 66.1342L57.9963 63.9553C57.8725 63.3858 57.3773 62.9649 56.783 62.9649H54.5546C53.8613 62.9649 53.3166 63.5096 53.3166 64.2029C53.3166 64.8962 53.8613 65.4409 54.5546 65.4409H55.7679L55.9907 66.6294C56.1145 67.2237 56.6345 67.6198 57.204 67.6198V67.5951ZM52.3757 77.4991H47.3494C46.6561 77.4991 46.1114 78.0438 46.1114 78.7371C46.1114 79.4304 46.6561 79.9751 47.3494 79.9751H52.3757C53.069 79.9751 53.6137 79.4304 53.6137 78.7371C53.6137 78.0438 53.069 77.4991 52.3757 77.4991ZM50.3206 65.4162C51.0139 65.4162 51.5586 64.8714 51.5586 64.1782C51.5586 63.4849 51.0139 62.9402 50.3206 62.9402H46.1114C45.4181 62.9402 44.8734 63.4849 44.8734 64.1782C44.8734 64.8714 45.4181 65.4162 46.1114 65.4162H50.3206Z" fill="url(#paint0_linear_245_166)"/>
</g>
<defs>
<linearGradient id="paint0_linear_245_166" x1="16.7535" y1="14.2679" x2="72.7534" y2="52.268" gradientUnits="userSpaceOnUse">
<stop stop-color="#43BDE3"/>
<stop offset="0.235" stop-color="#4A82AB"/>
<stop offset="0.48" stop-color="#4D8DC8"/>
<stop offset="0.7" stop-color="#3F76CA"/>
<stop offset="0.885" stop-color="#705AC9"/>
</linearGradient>
<clipPath id="clip0_245_166">
<rect width="80" height="80" fill="white"/>
</clipPath>
</defs>
</svg>
