<svg width="80" height="80" viewBox="0 0 80 80" fill="none" xmlns="http://www.w3.org/2000/svg">
<g clip-path="url(#clip0_245_178)">
<path d="M53.3752 22.3335H27.6162C26.9874 22.3335 26.4517 22.8459 26.4517 23.498L26.1024 56.4536C26.1024 56.7564 26.2188 57.0591 26.4284 57.292C26.638 57.5249 26.9408 57.6414 27.2669 57.6414H53.3752C54.0273 57.6414 54.5397 57.129 54.5397 56.4769V23.5213C54.5397 22.8692 54.0273 22.3568 53.3752 22.3568V22.3335ZM52.2106 55.2891H28.4547L28.7807 24.6625H52.2106V55.2891ZM34.1375 31.8592H46.5046C47.1567 31.8592 47.6691 31.3468 47.6691 30.6947C47.6691 30.0425 47.1567 29.5302 46.5046 29.5302H34.1375C33.4854 29.5302 32.973 30.0425 32.973 30.6947C32.973 31.3468 33.4854 31.8592 34.1375 31.8592ZM34.1375 41.1287H46.5046C47.1567 41.1287 47.6691 40.6163 47.6691 39.9641C47.6691 39.312 47.1567 38.7996 46.5046 38.7996H34.1375C33.4854 38.7996 32.973 39.312 32.973 39.9641C32.973 40.6163 33.4854 41.1287 34.1375 41.1287ZM34.1375 50.0488H46.5046C47.1567 50.0488 47.6691 49.5364 47.6691 48.8843C47.6691 48.2322 47.1567 47.7198 46.5046 47.7198H34.1375C33.4854 47.7198 32.973 48.2322 32.973 48.8843C32.973 49.5364 33.4854 50.0488 34.1375 50.0488ZM8.61145 25.1283C8.77448 25.2215 8.96081 25.2681 9.14713 25.2681C9.56635 25.2681 9.96228 25.0351 10.1719 24.6392C10.9638 23.1254 11.8721 21.6814 12.8736 20.3305C13.2462 19.8182 13.153 19.0729 12.6174 18.7002C12.105 18.3276 11.383 18.4207 10.9871 18.9564C9.9157 20.4004 8.93751 21.9608 8.09907 23.5679C7.7963 24.1268 8.00591 24.8488 8.58816 25.1516L8.61145 25.1283ZM73.0088 30.3453C73.1485 30.8577 73.6143 31.1838 74.1267 31.1838C74.2431 31.1838 74.3363 31.1838 74.4528 31.1372C75.0816 30.9509 75.4309 30.2987 75.2446 29.6932C74.7555 27.9697 74.1034 26.2695 73.3581 24.6625C73.0786 24.0803 72.4032 23.8241 71.821 24.1035C71.2387 24.383 70.9825 25.0584 71.262 25.6407C71.9607 27.1546 72.5663 28.7383 73.0321 30.3453H73.0088ZM5.51386 35.1664C5.51386 35.1664 5.6536 35.1664 5.72347 35.1664C6.28244 35.1664 6.77153 34.7704 6.86469 34.2115C7.16746 32.5579 7.60998 30.9043 8.14565 29.2972C8.35526 28.6917 8.0292 28.0163 7.42365 27.8067C6.81811 27.5971 6.1427 27.9231 5.93308 28.5287C5.35083 30.2521 4.88503 32.0222 4.55896 33.7923C4.44251 34.4211 4.86174 35.0266 5.49057 35.1431L5.51386 35.1664ZM68.7933 21.2389C69.0261 21.5882 69.3755 21.7512 69.7714 21.7512C69.981 21.7512 70.2139 21.6814 70.4236 21.5649C70.9592 21.2156 71.099 20.4936 70.7496 19.9579C69.7714 18.4673 68.6535 17.0466 67.4657 15.6958C67.0232 15.2067 66.3012 15.1834 65.8121 15.6026C65.323 16.0219 65.2997 16.7671 65.7189 17.2562C66.8369 18.5139 67.8849 19.8414 68.7933 21.2389ZM50.9996 7.70727C51.8147 7.96346 52.6299 8.26623 53.4217 8.59229C53.5615 8.66216 53.7245 8.68545 53.8642 8.68545C54.3301 8.68545 54.7493 8.40597 54.9356 7.96346C55.1685 7.3812 54.889 6.6825 54.3068 6.4496C53.4683 6.10024 52.5833 5.77418 51.7215 5.4947C51.116 5.30838 50.4639 5.63444 50.2543 6.23999C50.068 6.84553 50.394 7.49765 50.9996 7.70727ZM54.2369 71.895C54.4232 72.3142 54.8657 72.5704 55.285 72.5704C55.448 72.5704 55.611 72.5471 55.774 72.4539C56.6125 72.058 57.4276 71.6388 58.2195 71.1963C58.7785 70.8935 58.9881 70.1715 58.662 69.6125C58.336 69.0536 57.6373 68.8439 57.0783 69.17C56.333 69.5892 55.5644 69.9852 54.7959 70.3345C54.2136 70.614 53.9574 71.2894 54.2369 71.8717V71.895ZM57.9866 10.8747C59.4306 11.7365 60.8047 12.7147 62.0857 13.786C62.2953 13.9723 62.5748 14.0422 62.831 14.0422C63.157 14.0422 63.5064 13.9025 63.7393 13.623C64.1585 13.1339 64.0886 12.3886 63.5762 11.9927C62.2021 10.8514 60.7116 9.80338 59.1977 8.89507C58.6387 8.569 57.94 8.73203 57.5907 9.291C57.2646 9.84996 57.4276 10.5487 57.9866 10.898V10.8747ZM5.53715 45.6935C6.16599 45.6237 6.63179 45.0414 6.56192 44.3893C6.39889 43.0617 6.32902 41.6876 6.32902 40.3368C6.32902 39.9874 6.32902 39.6614 6.32902 39.312C6.32902 38.6599 5.83992 38.1242 5.21109 38.1009C4.55896 38.1475 4.02329 38.59 4 39.2189C4 39.5915 4 39.9641 4 40.3135C4 41.7575 4.09316 43.2248 4.25619 44.6455C4.32606 45.2277 4.83845 45.6702 5.4207 45.6702C5.46728 45.6702 5.51386 45.6702 5.56044 45.6702L5.53715 45.6935ZM29.6425 72.4073C28.8273 72.1511 28.0122 71.8484 27.2203 71.5223C26.638 71.2894 25.9393 71.5689 25.7064 72.1512C25.4735 72.7567 25.753 73.4321 26.3353 73.665C27.1737 74.0144 28.0587 74.3171 28.9205 74.6199C29.0369 74.6665 29.1534 74.6665 29.2698 74.6665C29.7589 74.6665 30.2247 74.3637 30.3878 73.8513C30.5741 73.2458 30.248 72.5937 29.6425 72.3841V72.4073ZM76.3393 34.9568C76.2461 34.3279 75.6638 33.8388 75.035 33.9553C74.4062 34.0484 73.9404 34.6307 74.0335 35.2595C74.2199 36.7501 74.3363 38.264 74.3363 39.7778V40.2902C74.3363 40.9423 74.8487 41.4547 75.4775 41.478C76.1064 41.478 76.642 40.9656 76.642 40.3368V39.7778C76.642 38.1708 76.5489 36.5405 76.316 34.9568H76.3393ZM65.0202 63.0447C63.8557 64.2558 62.5981 65.397 61.2938 66.4218C60.7814 66.8177 60.6883 67.5397 61.0842 68.0521C61.3171 68.3549 61.6665 68.4946 62.0158 68.4946C62.272 68.4946 62.5049 68.4247 62.7378 68.2617C64.1585 67.1671 65.486 65.956 66.7204 64.6517C67.1629 64.1859 67.1396 63.4406 66.6738 62.9981C66.208 62.5556 65.4628 62.5789 65.0202 63.0447ZM75.2213 44.3427C74.5692 44.2262 73.987 44.6688 73.8705 45.2976C73.591 46.9512 73.1951 48.5815 72.6827 50.1885C72.4964 50.7941 72.8224 51.4462 73.428 51.6558C73.5444 51.7024 73.6609 51.7024 73.7773 51.7024C74.2664 51.7024 74.7322 51.3996 74.8953 50.8872C75.4542 49.1871 75.8735 47.417 76.1762 45.6702C76.2694 45.0414 75.8502 44.4359 75.2213 44.3194V44.3427ZM72.3566 54.3109C71.7977 54.0314 71.0757 54.2643 70.7962 54.8233C70.0509 56.3138 69.1892 57.7578 68.211 59.132C67.8383 59.6676 67.9781 60.3896 68.4905 60.7623C68.7001 60.902 68.933 60.9719 69.1659 60.9719C69.5385 60.9719 69.8879 60.8088 70.1208 60.4828C71.1456 59.0155 72.0772 57.4551 72.869 55.8713C73.1485 55.2891 72.9156 54.5904 72.3566 54.3109ZM7.54011 49.3967C7.37707 48.7678 6.72495 48.3952 6.09612 48.5815C5.46728 48.7445 5.11793 49.3967 5.28096 50.0255C5.77005 51.7723 6.39889 53.4957 7.14417 55.1493C7.33049 55.5918 7.77301 55.8247 8.21552 55.8247C8.37855 55.8247 8.54158 55.8015 8.70461 55.7316C9.28687 55.4754 9.54306 54.7767 9.28687 54.1944C8.58816 52.634 8.00591 51.027 7.54011 49.3967ZM20.3497 11.5269C19.9538 11.0145 19.2318 10.898 18.7194 11.2707C17.2521 12.342 15.878 13.5298 14.597 14.8108C14.1312 15.2766 14.1312 15.9986 14.597 16.4644C14.8299 16.6973 15.1327 16.8137 15.4122 16.8137C15.6917 16.8137 15.9944 16.6973 16.2273 16.4644C17.4384 15.2766 18.7427 14.1586 20.0935 13.1572C20.6059 12.7845 20.7223 12.0392 20.3497 11.5269ZM11.7323 58.6429C11.383 58.1072 10.661 57.9442 10.1253 58.2935C9.58964 58.6429 9.42661 59.3649 9.77596 59.9005C10.7541 61.4144 11.8721 62.8817 13.0832 64.2325C13.3161 64.4887 13.6421 64.6284 13.9449 64.6284C14.2244 64.6284 14.5039 64.5353 14.7135 64.3257C15.2026 63.9064 15.2492 63.1611 14.8066 62.6721C13.6887 61.3911 12.6407 60.0403 11.709 58.6196L11.7323 58.6429ZM27.36 7.84701C27.1038 7.26475 26.4284 6.98527 25.8229 7.24146C24.9844 7.61411 24.146 8.01004 23.3308 8.42926C22.7486 8.73203 22.539 9.43074 22.8417 9.9897C23.0514 10.3856 23.4473 10.6185 23.8665 10.6185C24.0528 10.6185 24.2392 10.572 24.4022 10.4788C25.1708 10.0829 25.9393 9.71022 26.7312 9.38416C27.3135 9.12797 27.5929 8.45255 27.3367 7.84701H27.36ZM22.6321 69.2166C21.1881 68.3316 19.7907 67.3534 18.4865 66.2587C17.9974 65.8628 17.2521 65.9094 16.8562 66.4218C16.4369 66.9109 16.5068 67.6562 17.0192 68.0521C18.4166 69.2166 19.9072 70.2647 21.4443 71.1963C21.6307 71.3127 21.8403 71.3593 22.0499 71.3593C22.4458 71.3593 22.8185 71.1497 23.0514 70.8003C23.3774 70.2414 23.2144 69.5427 22.6554 69.1933L22.6321 69.2166ZM26.0558 16.4877C26.2188 16.5808 26.4051 16.6274 26.5915 16.6274C27.0107 16.6274 27.4066 16.3945 27.6162 15.9986L32.5305 6.63592C32.6702 6.35644 32.6935 6.05367 32.6236 5.75089C32.5537 5.44812 32.3208 5.21522 32.0414 5.07548L22.6787 0.137963C22.1198 -0.164809 21.421 0.0448023 21.1183 0.627056C20.8155 1.18602 21.0251 1.90802 21.6074 2.1875L29.9452 6.56605L25.5667 14.9039C25.2639 15.4629 25.4735 16.1849 26.0558 16.4644V16.4877ZM59.5471 77.8339L51.4654 73.0362L56.2864 64.9312C56.6125 64.3722 56.4262 63.6735 55.8905 63.3242C55.3548 62.9748 54.6328 63.1844 54.2835 63.7201L48.8802 72.8266C48.5541 73.3855 48.7404 74.0842 49.2761 74.4336L58.3592 79.8369C58.5456 79.9534 58.7552 79.9999 58.9648 79.9999C59.3607 79.9999 59.7567 79.7903 59.9663 79.441C60.2923 78.882 60.106 78.1833 59.5703 77.8339H59.5471Z" fill="url(#paint0_linear_245_178)"/>
</g>
<defs>
<linearGradient id="paint0_linear_245_178" x1="17.5296" y1="14.2679" x2="73.1845" y2="51.4192" gradientUnits="userSpaceOnUse">
<stop stop-color="#43BDE3"/>
<stop offset="0.235" stop-color="#4A82AB"/>
<stop offset="0.48" stop-color="#4D8DC8"/>
<stop offset="0.7" stop-color="#3F76CA"/>
<stop offset="0.885" stop-color="#705AC9"/>
</linearGradient>
<clipPath id="clip0_245_178">
<rect width="80" height="80" fill="white"/>
</clipPath>
</defs>
</svg>
