<svg width="81" height="80" viewBox="0 0 81 80" fill="none" xmlns="http://www.w3.org/2000/svg">
<g clip-path="url(#clip0_2005_120)">
<path d="M71.0515 64.3765C73.3353 64.3765 74.8705 62.8413 74.8705 60.5575V9.95477C74.8705 9.42774 74.4428 9 73.9158 9C73.3887 9 72.961 9.42774 72.961 9.95477V60.5575C72.961 62.2188 71.7637 62.467 71.0515 62.467C70.8548 62.467 69.1419 62.4135 69.1419 60.5575V9.95477C69.1419 9.42774 68.7142 9 68.1872 9C67.6601 9 67.2324 9.42774 67.2324 9.95477V60.5575C67.2324 63.0647 69.1534 64.3765 71.0515 64.3765Z" fill="url(#paint0_linear_2005_120)"/>
<path d="M8.99199 49.1003H28.0873C28.6144 49.1003 29.0421 48.6725 29.0421 48.1455V30.9597C29.0421 30.4326 28.6144 30.0049 28.0873 30.0049H8.99199C8.46496 30.0049 8.03723 30.4326 8.03723 30.9597V48.1455C8.03723 48.6725 8.46496 49.1003 8.99199 49.1003ZM9.94676 31.9144H27.1326V47.1907H9.94676V31.9144Z" fill="url(#paint1_linear_2005_120)"/>
<path d="M8.99199 24.2763H54.8209C55.3479 24.2763 55.7756 23.8485 55.7756 23.3215V15.6834C55.7756 15.1563 55.3479 14.7286 54.8209 14.7286H8.99199C8.46496 14.7286 8.03723 15.1563 8.03723 15.6834V23.3215C8.03723 23.8485 8.46496 24.2763 8.99199 24.2763ZM9.94676 16.6381H53.8661V22.3667H9.94676V16.6381Z" fill="url(#paint2_linear_2005_120)"/>
<path d="M54.8209 30.0049H35.7255C35.1985 30.0049 34.7707 30.4326 34.7707 30.9597C34.7707 31.4867 35.1985 31.9144 35.7255 31.9144H54.8209C55.3479 31.9144 55.7756 31.4867 55.7756 30.9597C55.7756 30.4326 55.3479 30.0049 54.8209 30.0049Z" fill="url(#paint3_linear_2005_120)"/>
<path d="M54.8209 35.7335H35.7255C35.1985 35.7335 34.7707 36.1612 34.7707 36.6883C34.7707 37.2153 35.1985 37.643 35.7255 37.643H54.8209C55.3479 37.643 55.7756 37.2153 55.7756 36.6883C55.7756 36.1612 55.3479 35.7335 54.8209 35.7335Z" fill="url(#paint4_linear_2005_120)"/>
<path d="M54.8209 41.4621H35.7255C35.1985 41.4621 34.7707 41.8898 34.7707 42.4169C34.7707 42.9439 35.1985 43.3716 35.7255 43.3716H54.8209C55.3479 43.3716 55.7756 42.9439 55.7756 42.4169C55.7756 41.8898 55.3479 41.4621 54.8209 41.4621Z" fill="url(#paint5_linear_2005_120)"/>
<path d="M54.8209 47.1907H35.7255C35.1985 47.1907 34.7707 47.6185 34.7707 48.1455C34.7707 48.6725 35.1985 49.1003 35.7255 49.1003H54.8209C55.3479 49.1003 55.7756 48.6725 55.7756 48.1455C55.7756 47.6185 55.3479 47.1907 54.8209 47.1907Z" fill="url(#paint6_linear_2005_120)"/>
<path d="M54.8209 52.9193H35.7255C35.1985 52.9193 34.7707 53.3471 34.7707 53.8741C34.7707 54.4011 35.1985 54.8289 35.7255 54.8289H54.8209C55.3479 54.8289 55.7756 54.4011 55.7756 53.8741C55.7756 53.3471 55.3479 52.9193 54.8209 52.9193Z" fill="url(#paint7_linear_2005_120)"/>
<path d="M8.99199 54.8289H28.0873C28.6144 54.8289 29.0421 54.4011 29.0421 53.8741C29.0421 53.3471 28.6144 52.9193 28.0873 52.9193H8.99199C8.46496 52.9193 8.03723 53.3471 8.03723 53.8741C8.03723 54.4011 8.46496 54.8289 8.99199 54.8289Z" fill="url(#paint8_linear_2005_120)"/>
<path d="M54.8209 58.6479H35.7255C35.1985 58.6479 34.7707 59.0757 34.7707 59.6027C34.7707 60.1297 35.1985 60.5575 35.7255 60.5575H54.8209C55.3479 60.5575 55.7756 60.1297 55.7756 59.6027C55.7756 59.0757 55.3479 58.6479 54.8209 58.6479Z" fill="url(#paint9_linear_2005_120)"/>
<path d="M8.99199 60.5575H28.0873C28.6144 60.5575 29.0421 60.1297 29.0421 59.6027C29.0421 59.0757 28.6144 58.6479 28.0873 58.6479H8.99199C8.46496 58.6479 8.03723 59.0757 8.03723 59.6027C8.03723 60.1297 8.46496 60.5575 8.99199 60.5575Z" fill="url(#paint10_linear_2005_120)"/>
<path d="M9.94647 70.0039H71.0516C71.0669 70.0039 71.0822 70.0039 71.0898 70.0039C71.1032 70.0039 71.1146 69.9963 71.128 69.9963C76.3009 69.9543 80.5 65.7399 80.5 60.5575V9.95477C80.5 9.48312 80.1181 9.10121 79.6464 9.10121C79.1748 9.10121 78.7929 9.48312 78.7929 9.95477V60.5575C78.7929 64.8253 75.3213 68.2968 71.0535 68.2968C66.7857 68.2968 63.3123 64.8253 63.3123 60.5575V9.95477C63.3123 9.48312 62.9304 9.10121 62.4587 9.10121H1.35356C0.881907 9.10121 0.5 9.48312 0.5 9.95477V60.5575C0.5 65.7667 4.73726 70.0039 9.94647 70.0039ZM2.20713 10.8083H61.6032V60.5575C61.6032 61.1418 61.6739 61.7089 61.7751 62.2665C61.7961 62.3773 61.8133 62.488 61.8381 62.5969C61.9565 63.1277 62.1131 63.6414 62.3174 64.1359C62.3537 64.2257 62.3976 64.3097 62.4377 64.3975C62.6439 64.8596 62.8826 65.3046 63.1595 65.7247C63.192 65.7724 63.2168 65.824 63.2493 65.8717C63.551 66.3109 63.8947 66.7176 64.2632 67.0995C64.3434 67.1816 64.4217 67.2618 64.5057 67.342C64.8609 67.6858 65.2352 68.0123 65.64 68.2968H9.94647C5.68057 68.2968 2.20713 64.8253 2.20713 60.5575V10.8083Z" fill="url(#paint11_linear_2005_120)"/>
</g>
<defs>
<linearGradient id="paint0_linear_2005_120" x1="28.22" y1="14.3378" x2="38.0114" y2="73.9703" gradientUnits="userSpaceOnUse">
<stop stop-color="#43BDE3"/>
<stop offset="0.235" stop-color="#4A82AB"/>
<stop offset="0.48" stop-color="#4D8DC8"/>
<stop offset="0.7" stop-color="#3F76CA"/>
<stop offset="0.885" stop-color="#705AC9"/>
</linearGradient>
<linearGradient id="paint1_linear_2005_120" x1="28.22" y1="14.3378" x2="38.0114" y2="73.9703" gradientUnits="userSpaceOnUse">
<stop stop-color="#43BDE3"/>
<stop offset="0.235" stop-color="#4A82AB"/>
<stop offset="0.48" stop-color="#4D8DC8"/>
<stop offset="0.7" stop-color="#3F76CA"/>
<stop offset="0.885" stop-color="#705AC9"/>
</linearGradient>
<linearGradient id="paint2_linear_2005_120" x1="28.22" y1="14.3378" x2="38.0114" y2="73.9703" gradientUnits="userSpaceOnUse">
<stop stop-color="#43BDE3"/>
<stop offset="0.235" stop-color="#4A82AB"/>
<stop offset="0.48" stop-color="#4D8DC8"/>
<stop offset="0.7" stop-color="#3F76CA"/>
<stop offset="0.885" stop-color="#705AC9"/>
</linearGradient>
<linearGradient id="paint3_linear_2005_120" x1="28.22" y1="14.3378" x2="38.0114" y2="73.9703" gradientUnits="userSpaceOnUse">
<stop stop-color="#43BDE3"/>
<stop offset="0.235" stop-color="#4A82AB"/>
<stop offset="0.48" stop-color="#4D8DC8"/>
<stop offset="0.7" stop-color="#3F76CA"/>
<stop offset="0.885" stop-color="#705AC9"/>
</linearGradient>
<linearGradient id="paint4_linear_2005_120" x1="28.22" y1="14.3378" x2="38.0114" y2="73.9703" gradientUnits="userSpaceOnUse">
<stop stop-color="#43BDE3"/>
<stop offset="0.235" stop-color="#4A82AB"/>
<stop offset="0.48" stop-color="#4D8DC8"/>
<stop offset="0.7" stop-color="#3F76CA"/>
<stop offset="0.885" stop-color="#705AC9"/>
</linearGradient>
<linearGradient id="paint5_linear_2005_120" x1="28.22" y1="14.3378" x2="38.0114" y2="73.9703" gradientUnits="userSpaceOnUse">
<stop stop-color="#43BDE3"/>
<stop offset="0.235" stop-color="#4A82AB"/>
<stop offset="0.48" stop-color="#4D8DC8"/>
<stop offset="0.7" stop-color="#3F76CA"/>
<stop offset="0.885" stop-color="#705AC9"/>
</linearGradient>
<linearGradient id="paint6_linear_2005_120" x1="28.22" y1="14.3378" x2="38.0114" y2="73.9703" gradientUnits="userSpaceOnUse">
<stop stop-color="#43BDE3"/>
<stop offset="0.235" stop-color="#4A82AB"/>
<stop offset="0.48" stop-color="#4D8DC8"/>
<stop offset="0.7" stop-color="#3F76CA"/>
<stop offset="0.885" stop-color="#705AC9"/>
</linearGradient>
<linearGradient id="paint7_linear_2005_120" x1="28.22" y1="14.3378" x2="38.0114" y2="73.9703" gradientUnits="userSpaceOnUse">
<stop stop-color="#43BDE3"/>
<stop offset="0.235" stop-color="#4A82AB"/>
<stop offset="0.48" stop-color="#4D8DC8"/>
<stop offset="0.7" stop-color="#3F76CA"/>
<stop offset="0.885" stop-color="#705AC9"/>
</linearGradient>
<linearGradient id="paint8_linear_2005_120" x1="28.22" y1="14.3378" x2="38.0114" y2="73.9703" gradientUnits="userSpaceOnUse">
<stop stop-color="#43BDE3"/>
<stop offset="0.235" stop-color="#4A82AB"/>
<stop offset="0.48" stop-color="#4D8DC8"/>
<stop offset="0.7" stop-color="#3F76CA"/>
<stop offset="0.885" stop-color="#705AC9"/>
</linearGradient>
<linearGradient id="paint9_linear_2005_120" x1="28.22" y1="14.3378" x2="38.0114" y2="73.9703" gradientUnits="userSpaceOnUse">
<stop stop-color="#43BDE3"/>
<stop offset="0.235" stop-color="#4A82AB"/>
<stop offset="0.48" stop-color="#4D8DC8"/>
<stop offset="0.7" stop-color="#3F76CA"/>
<stop offset="0.885" stop-color="#705AC9"/>
</linearGradient>
<linearGradient id="paint10_linear_2005_120" x1="28.22" y1="14.3378" x2="38.0114" y2="73.9703" gradientUnits="userSpaceOnUse">
<stop stop-color="#43BDE3"/>
<stop offset="0.235" stop-color="#4A82AB"/>
<stop offset="0.48" stop-color="#4D8DC8"/>
<stop offset="0.7" stop-color="#3F76CA"/>
<stop offset="0.885" stop-color="#705AC9"/>
</linearGradient>
<linearGradient id="paint11_linear_2005_120" x1="28.22" y1="14.3378" x2="38.0114" y2="73.9703" gradientUnits="userSpaceOnUse">
<stop stop-color="#43BDE3"/>
<stop offset="0.235" stop-color="#4A82AB"/>
<stop offset="0.48" stop-color="#4D8DC8"/>
<stop offset="0.7" stop-color="#3F76CA"/>
<stop offset="0.885" stop-color="#705AC9"/>
</linearGradient>
<clipPath id="clip0_2005_120">
<rect width="80" height="80" fill="white" transform="translate(0.5)"/>
</clipPath>
</defs>
</svg>
