<svg width="80" height="80" viewBox="0 0 80 80" fill="none" xmlns="http://www.w3.org/2000/svg">
<path d="M71.0803 70.4986H64.8602V8.5014H71.0803C71.4986 8.5014 71.8311 8.16895 71.8311 7.7507C71.8311 7.33245 71.4986 7 71.0803 7H8.7507C8.33245 7 8 7.33245 8 7.7507C8 8.16895 8.33245 8.5014 8.7507 8.5014H16.129V70.4986H8.7507C8.33245 70.4986 8 70.831 8 71.2493C8 71.6675 8.33245 72 8.7507 72H71.0911C71.5093 72 71.8418 71.6675 71.8418 71.2493C71.8418 70.831 71.5093 70.4986 71.0911 70.4986H71.0803ZM63.3589 24.2447C62.7797 23.4296 61.8574 22.6682 60.592 21.9711C60.2274 21.7781 59.7769 21.9068 59.5732 22.2714C59.3694 22.636 59.5088 23.0865 59.8735 23.2902C60.9673 23.8908 61.7502 24.5342 62.1899 25.1777C62.34 25.3922 62.576 25.5101 62.8119 25.5101C62.9621 25.5101 63.1015 25.4672 63.2302 25.3815C63.2838 25.3493 63.316 25.2957 63.3589 25.242V27.3869C63.3589 27.3869 63.2945 27.3011 63.2409 27.2689C62.8977 27.033 62.4258 27.1295 62.2006 27.4727C61.7717 28.1269 60.9888 28.7596 59.8949 29.3709C59.5303 29.5747 59.4016 30.0251 59.6053 30.3897C59.7448 30.6364 60.0021 30.7758 60.2595 30.7758C60.3882 30.7758 60.5062 30.7436 60.6242 30.6793C61.8682 29.9822 62.7797 29.2208 63.3589 28.4164V49.0285C62.7797 48.2135 61.8574 47.4521 60.592 46.755C60.2274 46.562 59.7769 46.6906 59.5732 47.0553C59.3694 47.4199 59.5088 47.8703 59.8735 48.0741C60.9673 48.6746 61.7502 49.3181 62.1899 49.9616C62.34 50.176 62.576 50.294 62.8119 50.294C62.9621 50.294 63.1015 50.2511 63.2302 50.1653C63.2838 50.1331 63.316 50.0795 63.3589 50.0366V52.1815C63.3589 52.1815 63.2945 52.0957 63.2409 52.0635C62.8977 51.8383 62.4258 51.9241 62.2006 52.2673C61.7717 52.9215 60.9888 53.5542 59.8949 54.1655C59.5303 54.3692 59.4016 54.8197 59.6053 55.1843C59.7448 55.431 60.0021 55.5704 60.2595 55.5704C60.3882 55.5704 60.5062 55.5382 60.6242 55.4738C61.8682 54.7768 62.7797 54.0153 63.3589 53.211V70.5093H17.6304V53.211C17.7806 53.3933 17.9843 53.5006 18.2095 53.5006C18.3597 53.5006 18.5098 53.4577 18.6385 53.3719C18.9817 53.136 19.0675 52.6641 18.8315 52.3316C18.5527 51.9348 18.4133 51.538 18.4133 51.1412C18.4133 50.7766 18.5313 50.412 18.7779 50.0259C19.0031 49.6827 18.9066 49.2109 18.5634 48.9856C18.2632 48.7926 17.8878 48.8462 17.6411 49.0822V28.4379C17.7913 28.6202 17.9951 28.7274 18.2203 28.7274C18.3704 28.7274 18.5205 28.6845 18.6492 28.5987C18.9924 28.3628 19.0782 27.8909 18.8423 27.5585C18.5634 27.1617 18.424 26.7649 18.424 26.3681C18.424 25.9713 18.542 25.6388 18.7886 25.2528C19.0139 24.9096 18.9173 24.4377 18.5742 24.2125C18.2739 24.0195 17.8985 24.0731 17.6519 24.309V8.52285H63.391V24.2661L63.3589 24.2447ZM20.6868 23.4082C20.8155 23.4082 20.9335 23.376 21.0515 23.3117C21.8772 22.8505 22.8746 22.4215 24.0221 22.0247C24.4189 21.8853 24.6227 21.4671 24.4833 21.0703C24.3438 20.6735 23.9256 20.4697 23.5288 20.6091C22.2955 21.0381 21.2231 21.4993 20.3222 22.0033C19.9576 22.2071 19.8289 22.6682 20.0327 23.0221C20.1721 23.2688 20.4295 23.4082 20.6868 23.4082ZM24.1186 30.6685C22.9711 30.2825 21.9738 29.8535 21.1373 29.3923C20.7726 29.1886 20.3222 29.328 20.1185 29.6926C19.9147 30.0573 20.0541 30.5077 20.4187 30.7114C21.3303 31.2048 22.4135 31.6766 23.636 32.0949C23.7111 32.127 23.7969 32.1378 23.8827 32.1378C24.1937 32.1378 24.4833 31.9447 24.5905 31.6337C24.7192 31.2369 24.5154 30.8187 24.1186 30.6793V30.6685ZM30.5532 32.1914C29.4164 32.0091 28.3226 31.7946 27.293 31.5587C26.8855 31.4621 26.4887 31.7195 26.3922 32.1163C26.2957 32.5131 26.553 32.9206 26.9498 33.0172C28.0115 33.2638 29.1483 33.489 30.3173 33.6713C30.3602 33.6713 30.3923 33.6713 30.4352 33.6713C30.7999 33.6713 31.1216 33.4032 31.1752 33.0386C31.2396 32.6311 30.9607 32.245 30.5532 32.1807V32.1914ZM37.1808 32.8563C36.0548 32.8027 34.9394 32.7276 33.8563 32.6204C33.438 32.5667 33.0734 32.8777 33.0305 33.296C32.9876 33.7035 33.2879 34.0789 33.7062 34.111C34.8108 34.2183 35.9583 34.3041 37.1058 34.3577C37.1165 34.3577 37.1272 34.3577 37.1379 34.3577C37.5347 34.3577 37.8672 34.0467 37.8886 33.6392C37.9101 33.2209 37.5884 32.8777 37.1701 32.8563H37.1808ZM53.707 21.1025C54.8545 21.3706 55.9162 21.6708 56.8814 22.0033C56.9672 22.0355 57.0422 22.0462 57.128 22.0462C57.439 22.0462 57.7286 21.8532 57.8358 21.5422C57.9753 21.1454 57.7608 20.7271 57.364 20.5877C56.3559 20.2445 55.2406 19.9228 54.0502 19.644C53.6426 19.5474 53.2458 19.8048 53.1493 20.2016C53.0528 20.6091 53.3102 21.0059 53.707 21.1025ZM33.674 20.0622C33.674 20.0622 33.7276 20.0622 33.7491 20.0622C34.8322 19.955 35.9475 19.8692 37.0736 19.8155C37.4918 19.7941 37.8028 19.4402 37.7921 19.0327C37.7814 18.6251 37.4275 18.2712 37.0092 18.3141C35.8617 18.3678 34.7142 18.4536 33.6096 18.5715C33.2021 18.6144 32.8911 18.979 32.934 19.3973C32.9769 19.7834 33.2986 20.0729 33.6847 20.0729L33.674 20.0622ZM47.1437 20.0622C48.2805 20.1802 49.3958 20.3196 50.4468 20.4912C50.4897 20.4912 50.5219 20.4912 50.5648 20.4912C50.9294 20.4912 51.2511 20.2231 51.3047 19.8584C51.3691 19.4509 51.0903 19.0648 50.6827 19.0005C49.5996 18.8289 48.4628 18.6788 47.2938 18.5608C46.8863 18.5072 46.511 18.8182 46.4681 19.2364C46.4252 19.644 46.7255 20.0193 47.1437 20.0622ZM40.4839 19.7405C41.5992 19.7405 42.7253 19.7619 43.8192 19.8155C43.8299 19.8155 43.8406 19.8155 43.8513 19.8155C44.2481 19.8155 44.5806 19.5045 44.602 19.097C44.6235 18.6788 44.3018 18.3356 43.8835 18.3141C42.7575 18.2605 41.61 18.2283 40.4732 18.2283H40.3981C39.9799 18.2283 39.6796 18.5608 39.6796 18.979C39.6796 19.3973 40.0549 19.7297 40.4625 19.7297L40.4839 19.7405ZM27.0142 21.1561C27.0678 21.1561 27.1322 21.1561 27.1858 21.1346C28.2046 20.8987 29.2985 20.6842 30.446 20.5019C30.8535 20.4376 31.1323 20.0515 31.068 19.644C31.0036 19.2364 30.6068 18.9469 30.21 19.0219C29.0304 19.215 27.9043 19.4295 26.8426 19.6761C26.4351 19.7726 26.1884 20.1802 26.2849 20.577C26.3707 20.9201 26.671 21.1561 27.0142 21.1561ZM43.8513 32.8777C42.7682 32.9314 41.6421 32.9528 40.5161 32.9635C40.0978 32.9635 39.7654 33.296 39.7654 33.7142C39.7654 34.1325 40.0978 34.4649 40.5161 34.4649C41.6743 34.4649 42.8218 34.4328 43.9264 34.3791C44.3447 34.3577 44.6557 34.0038 44.6449 33.5963C44.6235 33.1887 44.2589 32.8348 43.8621 32.8777H43.8513ZM50.479 32.2128C49.4173 32.3844 48.3127 32.5238 47.1759 32.6418C46.7684 32.6847 46.4574 33.0493 46.5002 33.4676C46.5431 33.8537 46.8649 34.1432 47.2509 34.1432C47.2724 34.1432 47.3046 34.1432 47.326 34.1432C48.4842 34.0252 49.6317 33.8751 50.7149 33.7035C51.1224 33.6392 51.4013 33.2531 51.3369 32.8456C51.2726 32.438 50.8865 32.1592 50.479 32.2236V32.2128ZM56.9135 30.6793C55.9484 31.0117 54.8867 31.312 53.7392 31.5801C53.3316 31.6766 53.085 32.0734 53.1815 32.4809C53.2673 32.8241 53.5676 33.0601 53.9107 33.0601C53.9644 33.0601 54.0287 33.0601 54.0823 33.0386C55.2727 32.7598 56.3881 32.438 57.3961 32.0949C57.7929 31.9555 57.9967 31.5372 57.8573 31.1404C57.7286 30.7436 57.2996 30.5398 56.9028 30.6793H56.9135ZM50.479 56.9967C49.4173 57.1683 48.3127 57.3077 47.1759 57.4257C46.7684 57.4686 46.4574 57.8332 46.5002 58.2514C46.5431 58.6375 46.8649 58.9271 47.2509 58.9271C47.2724 58.9271 47.3046 58.9271 47.326 58.9271C48.4842 58.8091 49.6317 58.659 50.7149 58.4874C51.1224 58.423 51.4013 58.037 51.3369 57.6294C51.2726 57.2219 50.8865 56.9431 50.479 57.0074V56.9967ZM56.9135 55.4631C55.9484 55.7956 54.8867 56.0959 53.7392 56.364C53.3316 56.4605 53.085 56.8573 53.1815 57.2648C53.2673 57.608 53.5676 57.8439 53.9107 57.8439C53.9644 57.8439 54.0287 57.8439 54.0823 57.8225C55.2727 57.5436 56.3881 57.2219 57.3961 56.8787C57.7929 56.7393 57.9967 56.3211 57.8573 55.9243C57.7286 55.5382 57.2996 55.3237 56.9028 55.4631H56.9135ZM40.4839 44.5351C41.5992 44.5351 42.7253 44.5565 43.8192 44.6101C43.8299 44.6101 43.8406 44.6101 43.8513 44.6101C44.2481 44.6101 44.5806 44.2991 44.602 43.8916C44.6235 43.4734 44.3018 43.1302 43.8835 43.1087C42.7575 43.0551 41.61 43.0229 40.4732 43.0229H40.3981C39.9799 43.0229 39.6796 43.3554 39.6796 43.7736C39.6796 44.1919 40.0549 44.5243 40.4625 44.5243L40.4839 44.5351ZM53.707 45.9078C54.8545 46.1759 55.9162 46.4762 56.8814 46.8086C56.9672 46.8408 57.0422 46.8515 57.128 46.8515C57.439 46.8515 57.7286 46.6585 57.8358 46.3475C57.9753 45.9507 57.7608 45.5324 57.364 45.393C56.3559 45.0498 55.2406 44.7281 54.0502 44.4493C53.6426 44.3527 53.2458 44.6101 53.1493 45.0069C53.0528 45.4145 53.3102 45.8113 53.707 45.9078ZM20.6868 48.2135C20.8155 48.2135 20.9335 48.1813 21.0515 48.117C21.8772 47.6558 22.8746 47.2161 24.0221 46.8301C24.4189 46.6906 24.6227 46.2617 24.4833 45.8756C24.3438 45.4895 23.9256 45.275 23.5288 45.4145C22.3062 45.8327 21.2231 46.3046 20.3222 46.8086C19.9576 47.0124 19.8289 47.4735 20.0327 47.8274C20.1721 48.0741 20.4295 48.2135 20.6868 48.2135ZM47.1544 44.8461C48.2912 44.964 49.4065 45.1035 50.4575 45.275C50.5004 45.275 50.5326 45.275 50.5755 45.275C50.9401 45.275 51.2618 45.0069 51.3155 44.6423C51.3798 44.2348 51.101 43.8487 50.6934 43.7844C49.6103 43.6128 48.4735 43.4626 47.3046 43.3447C46.897 43.3018 46.5217 43.602 46.4788 44.0203C46.4359 44.4278 46.7362 44.8032 47.1544 44.8461ZM43.8621 57.6509C42.7575 57.7045 41.6314 57.7367 40.5268 57.7367C40.1086 57.7367 39.7761 58.0691 39.7761 58.4874C39.7761 58.9056 40.1086 59.2381 40.5268 59.2381C41.6636 59.2381 42.8111 59.2059 43.9371 59.1523C44.3554 59.1308 44.6664 58.7769 44.6557 58.3694C44.6342 57.9619 44.2696 57.608 43.8728 57.6509H43.8621ZM33.674 44.8568C33.674 44.8568 33.7276 44.8568 33.7491 44.8568C34.8322 44.7495 35.9475 44.6637 37.0736 44.6101C37.4918 44.5887 37.8028 44.2348 37.7921 43.8273C37.7707 43.409 37.4168 43.0766 37.0092 43.1087C35.8617 43.1623 34.7142 43.2481 33.6096 43.3661C33.2021 43.409 32.8911 43.7736 32.934 44.1919C32.9769 44.578 33.2986 44.8675 33.6847 44.8675L33.674 44.8568ZM37.1808 57.6616C36.0548 57.608 34.9394 57.5329 33.8563 57.4257C33.438 57.3828 33.0734 57.6831 33.0305 58.1013C32.9876 58.5088 33.2879 58.8842 33.7062 58.9163C34.8108 59.0236 35.9583 59.1094 37.1058 59.163C37.1165 59.163 37.1272 59.163 37.1379 59.163C37.5347 59.163 37.8672 58.852 37.8886 58.4445C37.9101 58.0262 37.5884 57.6831 37.1701 57.6616H37.1808ZM30.5532 56.9967C29.4164 56.8144 28.3226 56.5999 27.293 56.364C26.8855 56.2674 26.4887 56.5248 26.3922 56.9216C26.2957 57.3184 26.553 57.726 26.9498 57.8225C28.0115 58.0691 29.1483 58.2943 30.3173 58.4767C30.3602 58.4767 30.3923 58.4767 30.4352 58.4767C30.7999 58.4767 31.1216 58.2085 31.1752 57.8439C31.2396 57.4364 30.9607 57.0503 30.5532 56.986V56.9967ZM27.0142 45.9399C27.0678 45.9399 27.1322 45.9399 27.1858 45.9185C28.2046 45.6826 29.2985 45.4681 30.446 45.275C30.8535 45.2107 31.1323 44.8246 31.068 44.4171C31.0036 44.0096 30.6176 43.7307 30.21 43.7951C29.0304 43.9881 27.8936 44.2026 26.8426 44.46C26.4351 44.5565 26.1884 44.964 26.2849 45.3608C26.3707 45.704 26.671 45.9399 27.0142 45.9399ZM24.1186 55.4738C22.9711 55.0878 21.9738 54.6588 21.1373 54.1977C20.7726 53.9939 20.3222 54.1333 20.1185 54.4979C19.9147 54.8626 20.0541 55.313 20.4187 55.5167C21.3303 56.0101 22.4135 56.4819 23.636 56.9002C23.7111 56.9324 23.7969 56.9431 23.8827 56.9431C24.1937 56.9431 24.4833 56.75 24.5905 56.439C24.7192 56.0422 24.5154 55.624 24.1186 55.4846V55.4738Z" fill="url(#paint0_linear_623_2355)"/>
<defs>
<linearGradient id="paint0_linear_623_2355" x1="19.8905" y1="18.5927" x2="66.3676" y2="52.1512" gradientUnits="userSpaceOnUse">
<stop stop-color="#43BDE3"/>
<stop offset="0.235" stop-color="#4A82AB"/>
<stop offset="0.48" stop-color="#4D8DC8"/>
<stop offset="0.7" stop-color="#3F76CA"/>
<stop offset="0.885" stop-color="#705AC9"/>
</linearGradient>
</defs>
</svg>
