<svg width="80" height="80" viewBox="0 0 80 80" fill="none" xmlns="http://www.w3.org/2000/svg">
<g clip-path="url(#clip0_245_78)">
<path d="M39.5775 28.2488C39.1322 28.2488 38.7782 28.6028 38.7782 29.0481V43.824C38.7782 44.2694 39.1322 44.6233 39.5775 44.6233C40.0228 44.6233 40.3768 44.2694 40.3768 43.824V29.0481C40.3768 28.6028 40.0228 28.2488 39.5775 28.2488ZM47.6392 21.8657C47.1938 21.8657 46.8399 22.2197 46.8399 22.665V43.8126C46.8399 44.2579 47.1938 44.6119 47.6392 44.6119C48.0845 44.6119 48.4385 44.2579 48.4385 43.8126V22.665C48.4385 22.2197 48.0845 21.8657 47.6392 21.8657ZM31.8584 34.6205C31.4131 34.6205 31.0591 34.9745 31.0591 35.4198V43.8126C31.0591 44.2579 31.4131 44.6119 31.8584 44.6119C32.3037 44.6119 32.6577 44.2579 32.6577 43.8126V35.4198C32.6577 34.9745 32.3037 34.6205 31.8584 34.6205ZM25.1442 27.9062C24.6988 27.9062 24.3449 28.2602 24.3449 28.7056V43.8126C24.3449 44.2579 24.6988 44.6119 25.1442 44.6119C25.5895 44.6119 25.9435 44.2579 25.9435 43.8126V28.7056C25.9435 28.2602 25.5895 27.9062 25.1442 27.9062ZM55.0271 34.2893C54.5818 34.2893 54.2278 34.6433 54.2278 35.0887V43.8126C54.2278 44.2579 54.5818 44.6119 55.0271 44.6119C55.4725 44.6119 55.8264 44.2579 55.8264 43.8126V35.0887C55.8264 34.6433 55.4725 34.2893 55.0271 34.2893ZM14.5704 26.2277C14.125 26.2277 13.7711 26.5817 13.7711 27.027V29.7675C13.7711 30.2128 14.125 30.5668 14.5704 30.5668C15.0157 30.5668 15.3697 30.2128 15.3697 29.7675V27.027C15.3697 26.5817 15.0157 26.2277 14.5704 26.2277ZM14.5704 37.1669C14.125 37.1669 13.7711 37.5209 13.7711 37.9662V39.4506C13.7711 39.896 14.125 40.2499 14.5704 40.2499C15.0157 40.2499 15.3697 39.896 15.3697 39.4506V37.9662C15.3697 37.5209 15.0157 37.1669 14.5704 37.1669ZM14.5704 31.6973C14.125 31.6973 13.7711 32.0513 13.7711 32.4966V35.2371C13.7711 35.6824 14.125 36.0364 14.5704 36.0364C15.0157 36.0364 15.3697 35.6824 15.3697 35.2371V32.4966C15.3697 32.0513 15.0157 31.6973 14.5704 31.6973ZM14.5704 22.0027C14.125 22.0027 13.7711 22.3567 13.7711 22.802V24.2865C13.7711 24.7318 14.125 25.0858 14.5704 25.0858C15.0157 25.0858 15.3697 24.7318 15.3697 24.2865V22.802C15.3697 22.3567 15.0157 22.0027 14.5704 22.0027ZM7.18242 34.0838C6.73708 34.0838 6.3831 34.4378 6.3831 34.8831V39.4506C6.3831 39.896 6.73708 40.2499 7.18242 40.2499C7.62775 40.2499 7.98173 39.896 7.98173 39.4506V34.8831C7.98173 34.4378 7.62775 34.0838 7.18242 34.0838ZM7.18242 29.2537C6.73708 29.2537 6.3831 29.6076 6.3831 30.053V30.3156C6.3831 30.7609 6.73708 31.1149 7.18242 31.1149C7.62775 31.1149 7.98173 30.7609 7.98173 30.3156V30.053C7.98173 29.6076 7.62775 29.2537 7.18242 29.2537ZM0.799315 30.2014C0.353983 30.2014 0 30.5554 0 31.0007V34.4835C0 34.9288 0.353983 35.2828 0.799315 35.2828C1.24465 35.2828 1.59863 34.9288 1.59863 34.4835V31.0007C1.59863 30.5554 1.24465 30.2014 0.799315 30.2014ZM0.799315 25.2342C0.353983 25.2342 0 25.5882 0 26.0336V27.518C0 27.9633 0.353983 28.3173 0.799315 28.3173C1.24465 28.3173 1.59863 27.9633 1.59863 27.518V26.0336C1.59863 25.5882 1.24465 25.2342 0.799315 25.2342ZM0.799315 37.1783C0.353983 37.1783 0 37.5323 0 37.9776V39.4621C0 39.9074 0.353983 40.2614 0.799315 40.2614C1.24465 40.2614 1.59863 39.9074 1.59863 39.4621V37.9776C1.59863 37.5323 1.24465 37.1783 0.799315 37.1783ZM72.1553 36.0364C72.6006 36.0364 72.9546 35.6824 72.9546 35.2371V32.4966C72.9546 32.0513 72.6006 31.6973 72.1553 31.6973C71.71 31.6973 71.356 32.0513 71.356 32.4966V35.2371C71.356 35.6824 71.71 36.0364 72.1553 36.0364ZM72.1553 30.5668C72.6006 30.5668 72.9546 30.2128 72.9546 29.7675V27.027C72.9546 26.5817 72.6006 26.2277 72.1553 26.2277C71.71 26.2277 71.356 26.5817 71.356 27.027V29.7675C71.356 30.2128 71.71 30.5668 72.1553 30.5668ZM72.1553 25.0972C72.6006 25.0972 72.9546 24.7432 72.9546 24.2979V22.8135C72.9546 22.3681 72.6006 22.0142 72.1553 22.0142C71.71 22.0142 71.356 22.3681 71.356 22.8135V24.2979C71.356 24.7432 71.71 25.0972 72.1553 25.0972ZM72.1553 40.2614C72.6006 40.2614 72.9546 39.9074 72.9546 39.4621V37.9776C72.9546 37.5323 72.6006 37.1783 72.1553 37.1783C71.71 37.1783 71.356 37.5323 71.356 37.9776V39.4621C71.356 39.9074 71.71 40.2614 72.1553 40.2614ZM65.4411 40.2614C65.8864 40.2614 66.2404 39.9074 66.2404 39.4621V34.8945C66.2404 34.4492 65.8864 34.0952 65.4411 34.0952C64.9957 34.0952 64.6417 34.4492 64.6417 34.8945V39.4621C64.6417 39.9074 64.9957 40.2614 65.4411 40.2614ZM56.1233 49.659C59.8915 45.651 62.2095 40.2842 62.2095 34.3693C62.2095 22.037 52.1724 11.9999 39.8401 11.9999C27.5079 11.9999 17.4707 22.037 17.4707 34.3693C17.4707 46.7016 27.5079 56.7387 39.8401 56.7387C45.6751 56.7387 50.9849 54.4663 54.97 50.7895L77.1225 68.1232C77.2709 68.2374 77.4422 68.2945 77.6135 68.2945C77.8533 68.2945 78.0816 68.1917 78.2415 67.9862C78.5156 67.6436 78.4585 67.1412 78.1045 66.8671L56.1119 49.659H56.1233ZM39.8401 55.14C28.3871 55.14 19.0694 45.8223 19.0694 34.3693C19.0694 22.9162 28.3871 13.5985 39.8401 13.5985C51.2932 13.5985 60.6109 22.9162 60.6109 34.3693C60.6109 45.8223 51.2932 55.14 39.8401 55.14ZM79.2007 25.2342C78.7554 25.2342 78.4014 25.5882 78.4014 26.0336V27.518C78.4014 27.9633 78.7554 28.3173 79.2007 28.3173C79.646 28.3173 80 27.9633 80 27.518V26.0336C80 25.5882 79.646 25.2342 79.2007 25.2342ZM79.2007 37.1783C78.7554 37.1783 78.4014 37.5323 78.4014 37.9776V39.4621C78.4014 39.9074 78.7554 40.2614 79.2007 40.2614C79.646 40.2614 80 39.9074 80 39.4621V37.9776C80 37.5323 79.646 37.1783 79.2007 37.1783ZM79.2007 30.2014C78.7554 30.2014 78.4014 30.5554 78.4014 31.0007V34.4835C78.4014 34.9288 78.7554 35.2828 79.2007 35.2828C79.646 35.2828 80 34.9288 80 34.4835V31.0007C80 30.5554 79.646 30.2014 79.2007 30.2014Z" fill="url(#paint0_linear_245_78)"/>
</g>
<defs>
<linearGradient id="paint0_linear_245_78" x1="14.9" y1="22.04" x2="57.2655" y2="66.2995" gradientUnits="userSpaceOnUse">
<stop stop-color="#43BDE3"/>
<stop offset="0.235" stop-color="#4A82AB"/>
<stop offset="0.48" stop-color="#4D8DC8"/>
<stop offset="0.7" stop-color="#3F76CA"/>
<stop offset="0.885" stop-color="#705AC9"/>
</linearGradient>
<clipPath id="clip0_245_78">
<rect width="80" height="80" fill="white"/>
</clipPath>
</defs>
</svg>
